<svg width="0" height="0" class="hidden">
  <symbol xmlns="http://www.w3.org/2000/svg" shape-rendering="geometricPrecision" text-rendering="geometricPrecision" image-rendering="optimizeQuality" fill-rule="evenodd" clip-rule="evenodd" viewBox="0 0 256000 256002" id="css3">
    <path fill="#1572b6" d="M221081 228523L241216 2960l265-2960H14519l264 2960 20115 225601 168 1880 1812 503 90265 25058h1446l90512-25095 1811-503z"></path>
    <path fill="#35a8db" d="M223988 16000h-95988v223561l77961-21615z"></path>
    <path d="M127893 76061l-67703 28196 2247 27916 65456-27988 69628-29768 2888-28557z"></path>
    <path d="M127893 45861h72516l-572 5653-571 5652-572 5651-572 5654-571 5652-30 294H57624l-101-808-571-4625-572-4624-572-4627-571-4624-571-4624-571-4624h73728zm-67598 58400h134767l-2456 28234-130065-322z"></path>
    <path d="M64506 147899l29481 12 1924 23086 31982 7931 32835-9214 2222-37751 29743-468-5333 61321-59359 17326-59789-17647zm63494-43760l69521-29722 2888-28557-72409 30156z"></path>
    <path d="M128000 45861h72409l-572 5653-571 5652-572 5651-572 5654-571 5652-30 294h-69521zm0 58400h67062l-2456 28234-64606-160z"></path>
    <path d="M128000 178899l32728-9185 2222-37751 29743-468-5333 61321-59359 17326h-1z"></path>
    <path fill="none" d="M0 1h256000v256000H0z"></path>
  </symbol>
  <symbol xmlns="http://www.w3.org/2000/svg" shape-rendering="geometricPrecision" text-rendering="geometricPrecision" image-rendering="optimizeQuality" fill-rule="evenodd" clip-rule="evenodd" viewBox="0 0 256000 256002" id="HTML5">
    <path fill="#e55638" d="M35175 230411L14519 0h226962l-20678 230375-92942 25627z"></path>
    <path fill="#f26b3a" d="M128000 236414l75102-20707 17670-196867h-92772z"></path>
    <path d="M128000 104296H90402l-2596-28938h40194V47099H56753l681 7581 6982 77874h63584zm0 73392l-124 33-31644-8499-2023-22537H65686l3980 44371 58203 16069 131-36z"></path>
    <path d="M127902 104296v28258h34987l-3298 36650-31689 8508v29400l58249-16056 426-4774 6678-74397 692-7589h-7656zm0-57197v28259h68630l571-6352 1294-14326 680-7581z"></path>
    <path fill="none" d="M0 1h256000v256000H0z"></path>
  </symbol>
  <symbol xmlns="http://www.w3.org/2000/svg" viewBox="0 0 400 453.488" id="javascript">
    <g fill-rule="evenodd">
      <path d="M.028 12.5c.079 1.394.716 2.08.744.8C.787 12.585.62 12 .4 12s-.387.225-.372.5M398.4 20.424c0 .453.18.712.4.576.22-.136.4-.507.4-.824 0-.317-.18-.576-.4-.576-.22 0-.4.371-.4.824M1.614 28.929c-.008.4.256.998.586 1.328.751.751.751.256 0-1.057-.459-.803-.574-.856-.586-.271m396.051 3.288c-.559 1.226-.571 1.383-.108 1.383.366 0 1.004-1.972.727-2.249-.085-.085-.363.305-.619.866M392.4 85.114c0 1.375.548 1.721.972.615.146-.38-.01-.938-.357-1.286-.553-.553-.615-.485-.615.671m-175.1 3.151c-.398.16-.5 17.696-.5 85.803v85.602l1.7-.289c.935-.158 2.69-.437 3.9-.619 1.21-.181 3.64-.595 5.4-.919 5.231-.963 10.265-1.862 12.434-2.22 1.119-.185 3.009-.528 4.2-.762 6.816-1.341 12.764-2.388 16.166-2.845 1.32-.177 3.21-.506 4.2-.731 1.561-.355 5.609-1.091 10.4-1.892 3.889-.65 10.712-1.921 14.2-2.644 1.1-.229 2.9-.445 4-.482l2-.067.063 5.8c.034 3.19-.098 7.51-.294 9.6-.196 2.09-.523 8.263-.728 13.717-.391 10.447-.678 11.883-2.379 11.883-.396 0-1.517.249-2.491.554-.974.305-2.896.845-4.271 1.2-8.732 2.255-14.585 3.82-18.046 4.824-1.18.342-2.545.622-3.033.622s-1.023.135-1.187.3c-.165.165-1.23.533-2.367.818-5.554 1.393-6.631 1.668-8.769 2.245-1.266.342-3.336.905-4.6 1.251-1.264.346-2.928.77-3.698.941-.77.171-2.03.513-2.8.76-3.343 1.073-5.596 1.685-6.2 1.685-.635 0-2.98.647-6.6 1.82-.99.321-2.284.583-2.876.582-.592-.001-1.175.158-1.296.353-.121.195-.896.479-1.724.631-.827.152-2.359.553-3.404.891l-1.9.615v22.797c0 21.556.038 22.781.7 22.504.385-.161 1.33-.428 2.1-.592.77-.165 2.84-.703 4.6-1.196 1.76-.494 3.56-.977 4-1.073.44-.097 1.7-.426 2.8-.731 1.1-.305 3.17-.851 4.6-1.213 3.99-1.011 6.802-1.758 9.035-2.402 1.119-.322 2.337-.586 2.706-.586.368 0 .982-.173 1.364-.384.382-.211 1.505-.562 2.495-.779.99-.218 2.88-.688 4.2-1.046 1.32-.357 3.39-.893 4.6-1.191 1.21-.298 3.28-.835 4.6-1.193 1.32-.358 3.03-.798 3.8-.978.77-.18 2.84-.733 4.6-1.229 1.76-.496 3.83-1.045 4.6-1.221.77-.175 2.84-.712 4.6-1.193 1.76-.48 3.65-.953 4.2-1.049.55-.096 1.9-.428 3-.737s3.08-.849 4.4-1.201c1.32-.352 3.276-.9 4.346-1.219 1.07-.319 2.345-.58 2.833-.58s1.02-.132 1.181-.294c.162-.161 1.227-.507 2.367-.767l4.073-.93c1.1-.25 2.36-.611 2.8-.8.44-.189 1.34-.447 2-.573.66-.126 2.46-.607 4-1.068 1.54-.462 3.389-.933 4.11-1.048 1.864-.298 2.121-1.077 2.525-7.665.198-3.22.549-7.745.78-10.055.231-2.31.596-6.81.81-10l.767-11.4c.207-3.08.562-7.13.788-9 .381-3.156 1.109-12.325 1.461-18.4.146-2.524.916-12.39 1.793-23 .237-2.86.578-7.54.758-10.4.45-7.153 1.103-14.86 1.873-22.123.381-3.585.502-6.263.292-6.463-.405-.386-5.38.011-12.157.972a543.886 543.886 0 01-18 2.205c-2.09.218-4.88.57-6.2.783a84.2 84.2 0 01-5.2.621 91.36 91.36 0 00-5.2.605c-2.559.394-11.339 1.489-14 1.746-.88.085-3.13.37-5 .632-11.679 1.641-12.053 1.676-12.629 1.198-.908-.754-.851-70.439.058-71.347.563-.564 4.92-.629 41.976-.629 29.111 0 41.427-.128 41.614-.431.147-.237.409-2.712.584-5.5.174-2.788.514-6.869.755-9.069.563-5.145 1.195-12.542 1.67-19.546.206-3.051.536-6.561.733-7.8.233-1.471.216-2.428-.051-2.754-.408-.5-123.778-.732-125.01-.235m-70.7.364c-.266.114-.363 34.747-.29 103.071.06 56.595.015 103.293-.101 103.773-.285 1.182-1.467 1.481-3.12.79-.754-.315-2.116-.699-3.028-.853-.911-.154-1.758-.444-1.883-.645-.124-.201-.62-.364-1.102-.363-.482.001-1.686-.252-2.676-.563-.99-.31-2.835-.851-4.1-1.202-2.183-.605-3.932-1.095-8.5-2.385-1.1-.31-3.08-.863-4.4-1.228-1.32-.366-3.276-.925-4.346-1.244-1.07-.319-2.275-.58-2.676-.58-.402 0-.827-.156-.945-.347-.118-.191-1.112-.466-2.208-.612-1.095-.145-2.1-.439-2.232-.653-.132-.213-.583-.388-1.003-.388-.419 0-1.623-.27-2.676-.6-1.961-.616-4.439-1.326-8.319-2.384a3710.74 3710.74 0 00-8.795-2.39c-1.32-.356-3.3-.904-4.4-1.218-1.1-.313-3.08-.865-4.4-1.226-1.32-.362-3.151-.929-4.069-1.262-2.667-.967-2.531-2.15-2.531 22.09v22.162l.9.488c.495.268 1.62.615 2.5.771.88.156 2.14.467 2.8.692.66.224 2.235.694 3.5 1.043l4.6 1.271c1.265.35 2.84.783 3.5.962a668.72 668.72 0 018.4 2.379c.66.196 1.83.482 2.6.635.77.154 1.58.418 1.8.588.22.17 1.203.441 2.185.603.981.162 2.061.44 2.4.618.605.318 2.469.828 6.015 1.647.99.228 1.971.576 2.18.773.209.197.902.358 1.54.358.637 0 1.726.255 2.42.566.693.312 1.8.658 2.46.769.66.111 2.46.588 4 1.059 1.54.47 3.43 1.015 4.2 1.209.77.194 2.39.626 3.6.96 1.21.333 3.01.817 4 1.075.99.258 2.16.609 2.6.781.44.172 1.61.518 2.6.768 2.871.726 5.631 1.483 8 2.192 1.21.363 3.01.85 4 1.082.99.233 1.971.584 2.18.781.209.197.839.357 1.4.356.561-.001 1.83.263 2.82.586.99.324 2.88.875 4.2 1.225 1.32.35 3.21.874 4.2 1.166.99.291 2.88.838 4.2 1.215 1.32.376 3.21.917 4.2 1.202.99.284 2.97.824 4.4 1.2 1.43.376 2.912.846 3.293 1.044 1.148.599 1.129 3.104 1.016-132.636L183.4 88.6l-18.2-.071c-10.01-.038-18.38.007-18.6.1M7.878 95.056c-.32.319.041.944.546.944.207 0 .376-.27.376-.6 0-.619-.472-.795-.922-.344m1.079 13.577c.134.348.243.708.243.8 0 .092.18.167.4.167.22 0 .4-.36.4-.8 0-.468-.267-.8-.643-.8-.422 0-.559.218-.4.633m1.107 11.371c.075.513.361 1.007.636 1.098.706.233.621-.638-.136-1.395-.582-.582-.625-.557-.5.297m1.414 14.252c-.32.319.041.944.546.944.207 0 .376-.27.376-.6 0-.619-.472-.795-.922-.344m376.251 1.984c-.135.353 0 .793.301.979.736.454.992.13.43-.546-.249-.301-.335-.665-.19-.81.145-.145.138-.263-.016-.263-.153 0-.39.288-.525.64m-.929 14.36c0 .33.18.6.4.6.22 0 .4-.27.4-.6 0-.33-.18-.6-.4-.6-.22 0-.4.27-.4.6M13.892 160.642c-.161.16-.292.567-.292.905 0 .45.118.495.445.168.245-.245.376-.652.292-.905-.085-.253-.285-.329-.445-.168m.508 11.771c0 .213.191.387.424.387.233 0 .295.208.138.462-.177.286-.11.353.176.176.638-.394.578-.908-.138-1.183-.33-.126-.6-.056-.6.158m368.4 29.944c0 .27-.18.379-.4.243-.22-.136-.4.033-.4.376 0 .343.161.624.357.624.427 0 .951-1.225.652-1.524-.115-.115-.209.011-.209.281m-1.527 10.93c-.26.26-.459.932-.441 1.493.017.561.122.794.234.518.111-.277.367-.401.568-.277.201.124.366.046.366-.174 0-.22-.199-.523-.443-.673-.31-.192-.283-.372.089-.602.292-.181.434-.425.316-.544-.119-.118-.428-.002-.689.259M19.367 226.256c.057.385.329.776.606.868.307.103.45-.11.365-.545-.181-.932-1.106-1.24-.971-.323m360.265 3.044c-.018.605.148 1.1.368 1.1s.4-.075.4-.167c0-.092.121-.482.268-.866.173-.451.114-.603-.166-.43-.238.147-.525.042-.636-.235-.112-.276-.217-.007-.234.598M22.081 251.702c-.373.45-.394.705-.074.902.592.366.895.019.728-.835-.122-.625-.186-.632-.654-.067m355.386 2.565c-.147.146-.267.611-.267 1.033 0 1.036.893.682 1.061-.421.13-.855-.255-1.152-.794-.612m-354.206 8.887c-.637.404-.477 1.708.239 1.946.328.109.5-.258.5-1.067 0-1.371.013-1.356-.739-.879M376 266.8c0 .747.107.853.48.48s.373-.587 0-.96-.48-.267-.48.48m-351.785 9.575c-.307.498-.12 2.825.227 2.825.15 0 .38-.279.511-.621.136-.356.069-.516-.158-.376-.563.348-.489-.341.105-.982.405-.436.392-.477-.068-.214-.422.241-.502.153-.313-.341.275-.716.077-.906-.304-.291m2.985 38.996c0 .346.174.629.387.629.214 0 .291.252.173.56-.118.307-.022.678.213.823.662.409.512-1.355-.173-2.04-.533-.533-.6-.53-.6.028m1.636 14.296c.216.403.476.733.578.733.102 0 .186-.33.186-.733 0-.404-.26-.734-.578-.734-.437 0-.483.18-.186.734m.764 13.069c0 .171.264.66.587 1.088.576.76.588.759.6-.081.007-.472-.257-.961-.587-1.088-.33-.126-.6-.09-.6.081m339.779 2.174c-.487 1.269-.013 2.214.576 1.147.365-.664.394-1.068.095-1.367-.298-.298-.497-.233-.671.22M32.2 368.8c-.292.472.087 1.2.624 1.2.207 0 .376-.36.376-.8 0-.844-.582-1.076-1-.4m334.6 3.424c0 .27.231.579.514.688.296.113.515-.095.515-.491 0-.378-.232-.688-.515-.688a.504.504 0 00-.514.491M34.571 394.871c0 .86.774.747.945-.137.065-.331-.122-.601-.414-.601s-.531.332-.531.738m11.707 14.985c-.32.319.041.944.546.944.207 0 .376-.27.376-.6 0-.619-.472-.795-.922-.344M124 431.957c0 .197.27.461.6.588.365.14.6 0 .6-.358a.595.595 0 00-.6-.587c-.33 0-.6.161-.6.357m13.078 3.499c-.32.319.041.944.546.944.207 0 .376-.27.376-.6 0-.619-.472-.795-.922-.344M162 442.424c0 .233-.18.312-.4.176-.22-.136-.4-.057-.4.176 0 .233.27.424.6.424.33 0 .6-.27.6-.6 0-.33-.09-.6-.2-.6-.11 0-.2.191-.2.424m71.2 1.152c0 .671.709.837.946.222.139-.363-.002-.598-.359-.598-.323 0-.587.169-.587.376m-64 .975c0 .083.27.375.6.649.491.408.6.38.6-.151 0-.357-.27-.649-.6-.649-.33 0-.6.068-.6.151m21 6.249c-.136.22-.071.4.144.4.215 0 .72.125 1.123.278.687.26.69.234.062-.4-.777-.784-.989-.828-1.329-.278" fill="#f5f5f5"></path>
      <path d="M200.937 36.2c-.963.711-.586 383.141.379 383.327.393.076 1.653-.137 2.8-.472a856.785 856.785 0 018.684-2.47c.99-.277 2.97-.814 4.4-1.192 1.43-.379 3.41-.915 4.4-1.192.99-.276 2.52-.696 3.4-.932 2.094-.563 7.225-1.974 9-2.477 1.904-.539 9.652-2.658 12.6-3.446 1.32-.353 3.21-.874 4.2-1.157 4.584-1.315 13.762-3.845 17.2-4.743 2.09-.546 5.42-1.454 7.4-2.018 1.98-.564 4.23-1.203 5-1.421 1.77-.5 6.959-1.928 8.8-2.421 1.716-.46 9.139-2.492 14.8-4.051l6.2-1.706 4.4-1.208c1.32-.362 3.03-.826 3.8-1.029.77-.204 2.39-.649 3.6-.988 1.21-.34 3.805-1.068 5.767-1.617 5.074-1.422 4.524-.313 5.444-10.987.236-2.75.68-7.52.986-10.6.305-3.08.658-7.04.785-8.8.126-1.76.405-4.91.619-7 .215-2.09.579-6.077.81-8.859.231-2.783.693-8.093 1.026-11.8.334-3.708.759-8.631.946-10.941.187-2.31.541-6.36.786-9 .246-2.64.718-7.86 1.05-11.6.331-3.74.773-8.6.98-10.8.208-2.2.481-5.35.607-7 .127-1.65.402-4.62.613-6.6.211-1.98.559-5.85.774-8.6.214-2.75.67-8.06 1.013-11.8a4068.88 4068.88 0 002.185-24.8c.224-2.64.581-6.6.793-8.8.411-4.26 1.123-12.298 2.409-27.2.436-5.06.973-11 1.193-13.2.22-2.2.675-7.24 1.011-11.2.336-3.96.797-9 1.023-11.2.227-2.2.575-6.07.775-8.6.806-10.199 1.609-19.477 1.801-20.8.112-.77.383-3.65.602-6.4.22-2.75.661-7.88.98-11.4.32-3.52.773-8.65 1.007-11.4.234-2.75.604-6.71.821-8.8.218-2.09.67-7.13 1.004-11.2.676-8.226 1.133-13.395 3.203-36.254.16-1.762.106-2.949-.142-3.102-.711-.439-161.339-.483-161.934-.044m142.32 51.7c.141 1.716-.13 6.759-.649 12.1-.309 3.19-.848 9.13-1.196 13.2-.348 4.07-.726 8.39-.84 9.6-.114 1.21-.367 4.147-.563 6.527-.196 2.38-.57 4.585-.831 4.9-.408.491-6.392.573-41.594.573-22.615 0-41.403.109-41.751.243-.852.327-.983 69.137-.132 69.464.707.271 16.05-1.325 18.699-1.946.55-.129 2.53-.393 4.4-.586 1.87-.193 5.56-.624 8.2-.958 2.64-.334 7.219-.885 10.175-1.223 2.957-.339 5.747-.702 6.2-.807.454-.105 2.535-.371 4.625-.592 8.823-.93 22.256-2.599 24.222-3.009 2.091-.436 2.223.1 1.78 7.252-.216 3.499-.498 7.082-.626 7.962-.128.88-.392 4.03-.587 7-.196 2.97-.539 7.74-.763 10.6-.225 2.86-.684 8.8-1.022 13.2-.338 4.4-.794 9.98-1.013 12.4-.22 2.42-.581 7.01-.802 10.2-.222 3.19-.579 7.33-.793 9.2-.214 1.87-.391 4.471-.393 5.779-.002 1.309-.183 3.829-.403 5.6-.22 1.772-.589 5.921-.82 9.221-.231 3.3-.685 9.51-1.008 13.8-.323 4.29-.734 9.884-.914 12.432-.437 6.202 1.078 5.127-12.058 8.559-5.003 1.308-7.015 1.854-8.946 2.429-1.07.319-2.288.58-2.705.58-.418 0-1.072.173-1.454.384-.382.211-1.595.581-2.695.823-3.511.77-4.729 1.072-8 1.981-1.76.49-4.82 1.306-6.8 1.814-1.98.509-6.12 1.592-9.2 2.408-3.08.816-6.23 1.633-7 1.815-.77.182-2.48.628-3.8.991-1.32.363-3.39.906-4.6 1.207-1.21.301-3.234.828-4.498 1.17-6.063 1.642-6.997 1.889-8.302 2.194-.77.181-2.84.721-4.6 1.201-1.76.48-3.83 1.016-4.6 1.191-.77.176-2.84.725-4.6 1.221-1.76.496-3.83 1.036-4.6 1.2-.77.164-2.84.711-4.6 1.216-1.76.504-3.74.932-4.4.951l-1.2.033-.103-23.248c-.086-19.216-.009-23.327.441-23.701.299-.248 2.686-1.008 5.303-1.689 6.811-1.771 6.838-1.778 10.359-2.766 1.76-.494 3.83-1.041 4.6-1.217.77-.175 2.84-.711 4.6-1.191 1.76-.48 3.83-1.024 4.6-1.209.77-.184 2.434-.619 3.698-.965 3.336-.914 5.918-1.6 11.102-2.952 2.53-.659 6.67-1.765 9.2-2.457 2.53-.692 5.23-1.413 6-1.6 9.952-2.427 16.788-4.508 16.811-5.119.006-.157.186-2.986.401-6.286.482-7.429 1.32-25.426 1.359-29.2.033-3.182.299-3.032-3.971-2.24a3574.773 3574.773 0 01-21.2 3.848c-1.76.312-4.73.844-6.6 1.18-1.87.337-4.589.788-6.042 1.003-1.453.214-2.893.486-3.2.603-.307.118-1.728.385-3.158.595-2.541.372-5.741.934-12.2 2.144-14.897 2.789-21.025 3.792-21.73 3.557-.515-.172-.718-172.508-.203-173.023.717-.718 126.931-.287 126.99.433" fill="#fbdb3b"></path>
      <path d="M0 1.2c0 .66.166 1.2.368 1.2C1.49 2.4 2.2 6.623 2.11 12.763c-.073 4.961.022 6.249.483 6.6.698.532.98 7.358.48 11.637-.21 1.8-.19 2.603.055 2.249 1.093-1.575 1.386.074 1.172 6.574-.209 6.306-.19 6.512.602 6.72.789.206.81.416.598 6.062-.183 4.889-.128 5.814.337 5.636.898-.345 1.098 1.442.849 7.597-.193 4.746-.139 5.68.317 5.506.838-.322 1.112 1.996.929 7.869-.123 3.951-.043 5.187.335 5.187.799 0 1.056 2.537.838 8.262-.178 4.662-.12 5.402.445 5.721.559.315.642 1.213.596 6.392-.041 4.628.065 6.025.454 6.025.76 0 1.113 3.876.787 8.65-.243 3.572-.198 4.15.326 4.15.867 0 1.233 3.79.874 9.059-.254 3.717-.213 4.237.313 4.035.836-.321 1.239 3.492.869 8.223-.248 3.177-.198 3.672.417 4.122.729.533 1.113 10.373.511 13.073-.2.896-.118 1.09.424 1 .924-.154 1.401 4.455.871 8.417-.559 4.178-.519 4.792.308 4.727.641-.051.697.484.67 6.344-.028 5.888.032 6.444.743 6.953.716.511.762.982.625 6.3-.114 4.397-.032 5.747.349 5.747.804 0 .985 1.575.845 7.355-.098 4.054-.009 5.446.35 5.446.77-.001 1.022 2.424.853 8.207-.119 4.056-.037 5.392.329 5.392.778 0 1.07 3.329.778 8.864-.233 4.405-.189 5.09.314 4.897.868-.333 1.205 2.702.876 7.893-.231 3.644-.182 4.346.301 4.346.864 0 1.18 3.058.854 8.27-.244 3.913-.2 4.53.326 4.53.864 0 1.233 3.784.878 9.002-.247 3.616-.205 4.178.3 3.984.759-.291 1.22 5.023.879 10.114-.16 2.39-.108 3.318.166 2.928.879-1.256 1.364 6.91.723 12.172-.311 2.551-.288 2.729.267 2 .961-1.261 1.227.614.967 6.819-.215 5.121-.194 5.314.604 5.522.807.211.821.382.592 6.865-.201 5.655-.153 6.579.321 6.186.872-.724 1.087.889.93 6.993-.104 4.034-.017 5.415.342 5.415.768 0 1.022 2.423.854 8.161-.118 4.03-.039 5.3.321 5.162.708-.272 1.086 3.644.845 8.745-.178 3.74-.116 4.397.446 4.713.565.318.643 1.226.587 6.793-.052 5.161.042 6.426.476 6.426.817 0 1.137 3.141.844 8.275-.211 3.696-.158 4.525.291 4.525.66 0 1.043 2.02 1.05 5.529.005 2.848.512 3.668 2.275 3.676 1.756.009 2.993.451 2.784.995-.14.365.287.441 1.64.288 1.475-.166 1.935-.062 2.373.537.406.556.954.714 2.167.627 1.297-.094 1.661.03 1.815.617.158.604.511.708 1.997.59 1.538-.122 1.837-.025 2.016.66.176.673.515.794 2.074.743 1.469-.049 1.854.071 1.819.566-.036.519.331.597 2.094.451 1.712-.142 2.187-.048 2.387.472.183.477.77.649 2.218.649 1.409 0 2.038.176 2.208.619.143.374.652.587 1.287.54 1.849-.14 2.45.026 2.45.675 0 .483.359.613 1.5.544 2.191-.131 2.5-.048 2.5.674 0 .52.279.607 1.371.43 1.708-.277 3.029.045 3.029.74 0 .379.391.464 1.392.302.934-.152 1.72-.012 2.386.425.547.358 1.585.654 2.308.657 1.499.007 2.529.522 2.179 1.089-.146.236.539.31 1.772.192 1.789-.172 2.034-.101 2.23.646.194.744.422.812 1.999.596 1.526-.209 1.807-.136 1.977.515.165.63.499.735 1.975.617 1.349-.107 1.835.013 2.022.499.179.466.778.64 2.203.64 1.597 0 1.957.129 1.956.7 0 .598.319.68 2.2.563 1.804-.112 2.201-.022 2.201.5 0 .495.432.637 1.933.637 2.178 0 2.673.27 1.994 1.088-.449.54.206.521 2.273-.069.74-.211 2.257.566 1.98 1.014-.181.293.178.408 1.074.345 2.166-.152 2.746-.017 2.746.64 0 .487.29.564 1.365.362 1.579-.296 3.035.062 3.035.747 0 .303.743.473 2.067.473 1.297 0 2.128.186 2.233.5.092.275.767.5 1.501.5 1.735 0 2.599.349 2.599 1.05 0 .403.287.493 1 .314 1.485-.373 3.023.111 2.735.861-.202.526.065.576 1.838.341 1.861-.247 2.095-.193 2.283.527.182.696.451.774 2.039.595 1.382-.156 1.943-.051 2.293.428.287.393 1.215.682 2.438.759 1.316.083 1.941.292 1.874.625-.069.346.505.5 1.857.5 1.371 0 2.026.18 2.188.6.157.411.8.6 2.042.6 1.384 0 1.813.149 1.813.631 0 .459.353.611 1.3.559 2.459-.134 3.1-.002 3.1.642 0 .493.262.574 1.191.37 1.411-.31 2.809.056 2.809.736 0 .321.525.433 1.562.334 1.129-.108 1.766.056 2.3.59.513.513 1.19.701 2.222.615 1.081-.09 1.665.088 2.151.655.523.611 1.004.733 2.238.567 1.34-.179 1.604-.09 1.785.602.183.698.443.783 1.828.597 1.241-.167 1.701-.064 1.985.443.265.474.925.659 2.349.659 1.67 0 1.98.117 1.98.751 0 .657.233.724 1.862.541 1.415-.16 1.974-.058 2.326.424.287.393 1.215.682 2.438.759 1.486.094 1.951.273 1.879.725-.076.483.306.572 1.958.457 1.92-.133 2.038-.088 1.832.7-.2.766-.054.843 1.591.843 1.471 0 1.728-.101 1.366-.537-.64-.771-.154-1.063 1.772-1.063 1.179 0 1.765-.193 1.935-.638.19-.495.695-.608 2.243-.5 1.725.119 1.998.037 1.998-.599 0-.642.278-.719 2.15-.6 1.56.099 2.099.004 1.964-.346-.239-.619 1.567-1.081 3.059-.782.908.181 1.185.068 1.348-.553.24-.921 3.447-1.177 3.519-.282.022.275.169.05.327-.5.256-.893.483-.993 2.123-.938 1.499.05 1.873-.079 2.036-.7.159-.607.566-.762 2.003-.762 1.088 0 1.871-.199 1.971-.5.107-.319.914-.489 2.234-.471 1.396.02 2.066-.132 2.066-.468 0-.64 1.991-1.079 3.349-.738.808.203 1.051.115 1.051-.38 0-.645.69-.801 2.9-.655.79.052 1.1-.116 1.1-.596 0-.555.342-.645 2-.531 1.691.118 2 .031 2-.561 0-.564.353-.7 1.813-.7 1.242 0 1.885-.189 2.042-.6.165-.429.835-.6 2.345-.6 1.583 0 2.177-.163 2.364-.65.199-.519.654-.612 2.243-.459 1.788.172 1.993.11 1.993-.605 0-.72.191-.775 1.96-.565 1.74.206 1.983.14 2.173-.587.184-.704.471-.798 2.046-.673 1.287.102 1.779.006 1.652-.325-.229-.597.65-.936 2.43-.936.768 0 1.686-.29 2.041-.644.48-.48 1.08-.585 2.355-.41 1.357.186 1.666.12 1.498-.32-.294-.765 1.135-1.149 3.063-.823 1.345.227 1.547.172 1.34-.368-.263-.685.251-.819 2.542-.662.955.066 1.3-.078 1.3-.542 0-.545.402-.691 2-.731.11-.002.83.097 1.6.221.77.124 1.175.132.9.019-1.395-.576-.425-1.34 1.7-1.34 1.746 0 2.2-.132 2.2-.637 0-.52.392-.612 2.14-.5 1.709.109 2.131.016 2.1-.463-.03-.442.479-.633 1.934-.725 1.228-.078 2.151-.366 2.441-.762.36-.494.876-.582 2.279-.39 1.553.213 1.805.151 1.759-.437-.044-.567.276-.675 1.847-.621 1.388.047 1.9-.086 1.9-.493 0-.666 1.624-1.137 3.007-.873.63.121.993.007.993-.312 0-.648.914-.987 2.661-.987.768 0 1.676-.28 2.018-.621.392-.393 1.156-.577 2.071-.5.797.066 1.482-.052 1.52-.263.118-.64 1.443-.96 3.03-.73 1.171.169 1.5.083 1.5-.392 0-.822.867-1.098 2.577-.82 1.143.185 1.423.102 1.423-.422 0-.516.418-.652 2-.652 1.511 0 2-.147 2-.6 0-.452.484-.6 1.957-.6 1.437 0 2.024-.173 2.206-.649.2-.52.675-.614 2.387-.472 1.763.146 2.13.068 2.094-.451-.035-.501.372-.617 2.022-.576 1.711.044 2.099-.076 2.262-.7.231-.88 2.88-1.089 3.191-.252.103.277.39-.014.643-.651.421-1.061.583-1.135 2.054-.938 1.316.177 1.671.074 2.024-.586.35-.653.752-.774 2.194-.66 1.194.095 1.766-.016 1.766-.344 0-.595 2.446-1.097 3.751-.769.928.233.964.151 1.239-2.785.231-2.463.396-2.981.887-2.793.528.203.568-.397.316-4.758-.33-5.721-.044-8.616.851-8.616.507 0 .56-.724.358-4.9-.24-4.961.132-8.955.821-8.833.226.04.32-1.938.235-4.924-.165-5.815.15-8.702.918-8.407.413.158.479-.735.326-4.369-.229-5.421.099-8.329.904-8.02.455.174.508-.731.312-5.307-.252-5.903-.051-7.64.887-7.64.502 0 .551-.786.334-5.326-.289-6.014-.012-8.599.844-7.888.444.368.498-.534.319-5.318-.226-6.035-.009-8.071.826-7.751.384.147.459-1.273.336-6.366-.154-6.377.33-9.448 1.13-7.168.128.363.16-2.319.072-5.961-.148-6.116-.106-6.622.544-6.622.642 0 .686-.376.489-4.236-.287-5.618.017-8.964.815-8.964.516 0 .569-.65.363-4.5-.266-4.958.067-7.768.897-7.584.42.094.467-.72.236-4.112-.349-5.119.035-9.804.803-9.804.423 0 .485-.88.303-4.322-.27-5.122.1-8.878.875-8.878.427 0 .49-.945.316-4.731-.264-5.723.073-8.639.957-8.3.53.204.571-.366.321-4.54-.326-5.465-.031-8.498.796-8.181.441.169.499-.832.321-5.576-.204-5.462-.171-5.821.597-6.479.768-.657.802-1.019.601-6.391-.232-6.177-.007-8.155.845-7.448.413.343.477-.841.332-6.161-.172-6.265.209-8.873 1.088-7.45.129.21.171-2.589.093-6.219-.142-6.607.168-8.441 1.168-6.921.273.415.332-.014.194-1.403-.695-6.982-.489-10.912.56-10.679.446.099.5-.703.302-4.409-.294-5.478.004-9.131.722-8.855.388.149.488-1.292.448-6.461-.045-5.784.034-6.7.604-7.019.554-.311.624-.886.447-3.712-.27-4.334.197-9.465.861-9.465.375 0 .452-1.063.316-4.368-.226-5.487.156-8.981.948-8.676.474.181.523-.536.311-4.491-.303-5.634.034-8.751.872-8.056.469.389.519-.376.33-4.994-.248-6.067-.001-8.4.853-8.073.45.173.506-.684.318-4.908-.247-5.549-.015-7.436.873-7.095.461.177.514-.892.325-6.481-.216-6.392.181-9.529 1.033-8.15.141.229.193-2.464.114-5.983-.138-6.192.187-8.272 1.069-6.845.161.26.223-2.576.137-6.303-.135-5.907-.076-6.777.462-6.777.339 0 .699.315.799.7.101.385.198-.02.215-.9.018-.88-.217-2.05-.521-2.6-.393-.709-.488-1.785-.328-3.7l.226-2.7H0v1.2m362.871 35.044c.248.153.302 1.34.142 3.102-2.07 22.859-2.527 28.028-3.203 36.254-.334 4.07-.786 9.11-1.004 11.2-.217 2.09-.587 6.05-.821 8.8-.234 2.75-.687 7.88-1.007 11.4-.319 3.52-.76 8.65-.98 11.4-.219 2.75-.49 5.63-.602 6.4-.192 1.323-.995 10.601-1.801 20.8-.2 2.53-.548 6.4-.775 8.6-.226 2.2-.687 7.24-1.023 11.2-.336 3.96-.791 9-1.011 11.2-.22 2.2-.757 8.14-1.193 13.2-1.286 14.902-1.998 22.94-2.409 27.2-.212 2.2-.569 6.16-.793 8.8a4068.88 4068.88 0 01-2.185 24.8c-.343 3.74-.799 9.05-1.013 11.8-.215 2.75-.563 6.62-.774 8.6-.211 1.98-.486 4.95-.613 6.6-.126 1.65-.399 4.8-.607 7-.207 2.2-.649 7.06-.98 10.8-.332 3.74-.804 8.96-1.05 11.6-.245 2.64-.599 6.69-.786 9-.187 2.31-.612 7.233-.946 10.941a2159.76 2159.76 0 00-1.026 11.8 558.479 558.479 0 01-.81 8.859c-.214 2.09-.493 5.24-.619 7-.127 1.76-.48 5.72-.785 8.8-.306 3.08-.75 7.85-.986 10.6-.92 10.674-.37 9.565-5.444 10.987-1.962.549-4.557 1.277-5.767 1.617-1.21.339-2.83.784-3.6.988-.77.203-2.48.667-3.8 1.029l-4.4 1.208-6.2 1.706a4070.47 4070.47 0 01-14.8 4.051c-1.841.493-7.03 1.921-8.8 2.421-.77.218-3.02.857-5 1.421-1.98.564-5.31 1.472-7.4 2.018-3.438.898-12.616 3.428-17.2 4.743-.99.283-2.88.804-4.2 1.157-2.948.788-10.696 2.907-12.6 3.446-1.775.503-6.906 1.914-9 2.477-.88.236-2.41.656-3.4.932-.99.277-2.97.813-4.4 1.192-1.43.378-3.41.915-4.4 1.192a856.785 856.785 0 00-8.684 2.47c-1.147.335-2.407.548-2.8.472-.965-.186-1.342-382.616-.379-383.327.595-.439 161.223-.395 161.934.044M184.32 87.68c.577.577.698 264.556.121 265.467-.433.683-2.402.452-6.241-.733-1.54-.475-3.43-1.012-4.2-1.194-.77-.182-2.93-.779-4.8-1.327-1.87-.548-3.85-1.087-4.4-1.198-.55-.112-2.62-.673-4.6-1.247-1.98-.575-4.23-1.226-5-1.448l-5-1.445c-1.98-.574-4.368-1.198-5.306-1.388-.938-.19-2.018-.506-2.4-.703-.382-.197-1.414-.488-2.294-.647-.88-.159-1.78-.428-2-.597-.22-.17-1.03-.422-1.8-.559-.77-.138-2.3-.507-3.4-.821-1.1-.314-2.99-.843-4.2-1.175-7.696-2.117-9.998-2.76-11.6-3.241-.99-.297-2.88-.839-4.2-1.203-1.32-.364-3.276-.922-4.346-1.241-1.07-.319-2.275-.58-2.676-.58-.402 0-.842-.18-.978-.4-.136-.22-.594-.4-1.018-.4-.423 0-2.348-.47-4.276-1.044-1.928-.574-4.236-1.192-5.129-1.373-.893-.182-2.063-.504-2.6-.716-.537-.213-2.147-.696-3.577-1.074-1.43-.379-3.5-.941-4.6-1.249l-4-1.121c-1.1-.308-2.9-.816-4-1.129-1.1-.312-3.204-.906-4.676-1.319-3.761-1.056-3.524.609-3.524-24.717 0-23.877-.004-23.834 2.037-23.344 1.55.371 8.706 2.339 12.163 3.345 1.1.32 2.63.743 3.4.94 2.371.605 5.695 1.52 8 2.201 1.21.358 3.146.905 4.302 1.217 1.156.312 3.136.85 4.4 1.196 1.264.345 3.108.818 4.098 1.05.99.232 1.971.582 2.18.779.209.197.701.358 1.094.358.393 0 2.292.47 4.22 1.045 1.928.574 4.136 1.184 4.906 1.355.77.171 2.93.757 4.8 1.303 4.428 1.293 4.68 1.364 9.503 2.664 2.257.608 4.222 1.225 4.367 1.369.145.145.563.264.929.264.367 0 1.87.378 3.342.84 1.471.462 2.942.737 3.269.611.524-.2.594-12.528.588-103.67-.004-56.894.096-103.609.221-103.812.365-.59 38.308-.482 38.901.111" fill="#d4bc34"></path>
      <path d="M398.693 2.697c-.141 1.753-.045 3.025.273 3.632.422.805.465.593.312-1.527-.111-1.523-.007-2.633.272-2.912.627-.627.563-1.89-.095-1.89-.385 0-.609.793-.762 2.697M0 4.567c0 1.191.17 2.226.378 2.3.208.073.674 1.573 1.036 3.333.894 4.355 1.127 4.301.874-.2C1.963 4.239 0-.424 0 4.567M398.064 13.1c.035 2.145.138 3.303.227 2.574.126-1.018.282-1.229.672-.905.575.478.849-2.476.414-4.469-.609-2.788-1.378-1.149-1.313 2.8M1.651 21.153c-.045 2.544.083 3.461.532 3.8.326.246.634 1.11.685 1.921.05.811.249 1.377.441 1.259.523-.324-.1-8.259-.686-8.733a2.645 2.645 0 01-.703-1c-.115-.33-.236.909-.269 2.753m396.45-1.753c.004.88.086 1.193.182.695.096-.497.092-1.217-.008-1.6-.1-.382-.179.025-.174.905m-1.034 2.867c-.147.146-.233 2.891-.191 6.1.068 5.285.096 5.495.3 2.233.197-3.164.276-3.457.651-2.42.378 1.045.436.842.506-1.766.101-3.777-.305-5.109-1.266-4.147M3.049 33.416c-.541 1.411-.283 5.483.332 5.246.462-.177.612.29.73 2.258.081 1.364.134.155.118-2.687-.027-4.892-.465-6.679-1.18-4.817m392.994 2.104c-.271.507-.412 2.815-.364 5.954.053 3.381.127 4.122.219 2.175.121-2.559.209-2.855.666-2.23.454.621.535.28.583-2.449.062-3.509-.363-4.836-1.104-3.45M4.028 49.271c.019 1.936.14 2.658.357 2.129.437-1.062.741-.284.938 2.4.081 1.1.131-.068.112-2.595-.031-4.043-.119-4.612-.735-4.73-.617-.118-.697.213-.672 2.796m390.621.945c-.137.357-.213 2.57-.17 4.917.065 3.489.105 3.738.218 1.367.133-2.793.674-3.867 1.008-2 .089.495.146-.345.128-1.867-.032-2.668-.624-3.877-1.184-2.417M5.7 58.293c-.765.266-.688 5.307.081 5.307.431 0 .618.646.723 2.5.078 1.383.174.356.213-2.3.071-4.85-.108-5.822-1.017-5.507m387.756 4.191c-.135.504-.217 2.626-.183 4.716.034 2.09.128 3.08.208 2.2.216-2.349.521-2.997.944-2 .216.511.309-.344.257-2.368-.081-3.135-.715-4.454-1.226-2.548M6.667 71.467c-.491.49-.293 4.456.233 4.668.4.161.4.208 0 .233-.275.018-.5.206-.5.419 0 .214.262.287.583.164.472-.181.608.367.719 2.913.1 2.295.157 1.795.212-1.864.09-5.981-.213-7.567-1.247-6.533m385.57 4.25c-.13.65-.202 2.916-.16 5.033.061 3.045.107 3.317.22 1.301.088-1.56.375-2.781.741-3.146.392-.392.568-1.247.511-2.485-.098-2.143-.935-2.592-1.312-.703M7.639 87.18c.051 1.765.242 2.751.521 2.7.272-.049.527 1.065.668 2.92.205 2.705.234 2.528.294-1.8.074-5.275-.125-6.6-.99-6.6-.452 0-.557.593-.493 2.78m137.78.389c-.125.203-.225 46.918-.221 103.812.006 91.142-.064 103.47-.588 103.67-.327.126-1.798-.149-3.269-.611-1.472-.462-2.975-.84-3.342-.84-.366 0-.784-.119-.929-.264-.145-.144-2.11-.761-4.367-1.369-4.823-1.3-5.075-1.371-9.503-2.664-1.87-.546-4.03-1.132-4.8-1.303-.77-.171-2.978-.781-4.906-1.355-1.928-.575-3.827-1.045-4.22-1.045-.393 0-.885-.161-1.094-.358-.209-.197-1.19-.547-2.18-.779-.99-.232-2.834-.705-4.098-1.05a1546.01 1546.01 0 00-4.4-1.196A225.35 225.35 0 0193.2 281a252.788 252.788 0 00-8-2.201c-.77-.197-2.3-.62-3.4-.94-3.457-1.006-10.613-2.974-12.163-3.345-2.041-.49-2.037-.533-2.037 23.344 0 25.326-.237 23.661 3.524 24.717 1.472.413 3.576 1.007 4.676 1.319 1.1.313 2.9.821 4 1.129l4 1.121c1.1.308 3.17.87 4.6 1.249 1.43.378 3.04.861 3.577 1.074.537.212 1.707.534 2.6.716.893.181 3.201.799 5.129 1.373 1.928.574 3.853 1.044 4.276 1.044.424 0 .882.18 1.018.4.136.22.576.4.978.4.401 0 1.606.261 2.676.58 1.07.319 3.026.877 4.346 1.241 1.32.364 3.21.906 4.2 1.203 1.602.481 3.904 1.124 11.6 3.241 1.21.332 3.1.861 4.2 1.175 1.1.314 2.63.683 3.4.821.77.137 1.58.389 1.8.559.22.169 1.12.438 2 .597.88.159 1.912.45 2.294.647.382.197 1.462.513 2.4.703.938.19 3.326.814 5.306 1.388l5 1.445c.77.222 3.02.873 5 1.448 1.98.574 4.05 1.135 4.6 1.247.55.111 2.53.65 4.4 1.198 1.87.548 4.03 1.145 4.8 1.327.77.182 2.66.719 4.2 1.194 3.839 1.185 5.808 1.416 6.241.733.577-.911.456-264.89-.121-265.467-.593-.593-38.536-.701-38.901-.111m245.64 1.116c-.138.833-.216 3.495-.173 5.915.072 4.11.086 4.18.212 1.064.113-2.771.237-3.298.737-3.106.505.194.582-.197.483-2.432-.132-2.968-.867-3.81-1.259-1.441m-207.473-.311c.52.971.572 263.557.053 264.377-.192.303-.517.448-.721.322-.36-.223-2.472-.83-9.918-2.855-1.98-.538-4.95-1.364-6.6-1.836-1.65-.472-4.53-1.276-6.4-1.788-1.87-.511-6.37-1.768-10-2.793-3.63-1.025-7.14-2.008-7.8-2.185-.66-.177-2.64-.724-4.4-1.216a555.95 555.95 0 00-4.4-1.214c-.66-.176-4.53-1.254-8.6-2.397-8.502-2.386-9.029-2.532-12-3.323-1.21-.322-3.19-.87-4.4-1.218-1.21-.348-3.82-1.069-5.8-1.602-1.98-.534-6.57-1.816-10.2-2.849-3.63-1.033-7.5-2.117-8.6-2.41-9.673-2.572-14.711-4.117-15.021-4.607-.478-.756-.487-44.391-.008-45.146.36-.57 1.607-.304 10.629 2.265 1.1.313 2.54.715 3.2.892 1.923.518 5.103 1.4 13 3.607a1777.5 1777.5 0 008.6 2.388c.66.176 2.64.722 4.4 1.214 1.76.492 3.74 1.037 4.4 1.213.66.176 2.55.712 4.2 1.191 1.65.48 4.62 1.308 6.6 1.842 1.98.533 4.5 1.224 5.6 1.534 11.692 3.302 15.234 4.216 15.678 4.045.427-.164.522-18.955.522-103.732 0-79.992.109-103.642.48-104.013.944-.944 36.995-.661 37.506.294M342.901 95c.004.88.086 1.193.182.695.096-.497.092-1.217-.008-1.6-.1-.382-.179.025-.174.905M8.8 100.655c0 2.135.109 2.589.581 2.408.456-.175.611.264.724 2.057.105 1.663.163 1.306.214-1.32.078-4.016-.133-5.243-.958-5.56-.446-.171-.561.324-.561 2.415m381.059 1.845c-.139 1.155-.218 3.72-.177 5.7.071 3.44.081 3.476.217.804.097-1.908.326-2.898.721-3.119.801-.448.833-5.485.036-5.485-.358 0-.631.719-.797 2.1m-48.166 5.9c0 .77.082 1.085.183.7.1-.385.1-1.015 0-1.4-.101-.385-.183-.07-.183.7m-331.611 5.1c.071 1.631.276 2.621.518 2.5.222-.111.507.6.64 1.6.233 1.747.242 1.729.3-.644.088-3.568-.338-6.156-1.013-6.156-.441 0-.538.588-.445 2.7m379.219.029c-.329.209-.551 1.739-.651 4.494-.084 2.297-.075 3.421.02 2.498.129-1.261.317-1.624.751-1.458.474.182.579-.329.579-2.82 0-1.674-.045-3.04-.1-3.037-.055.003-.325.149-.599.323M11.2 125.957c0 1.685.165 2.421.577 2.579.359.138.634.948.728 2.143.13 1.659.161 1.561.223-.723.1-3.685-.312-6.356-.982-6.356-.399 0-.546.633-.546 2.357m376.185 4.286c-.155 1.866-.171 3.505-.034 3.642.137.136.249-.147.249-.631 0-.483.27-.983.6-1.109.826-.317.856-4.761.034-5.077-.449-.172-.625.489-.849 3.175m-47.692.557c0 .77.082 1.085.183.7.1-.385.1-1.015 0-1.4-.101-.385-.183-.07-.183.7M12.9 136.697c-.69.234-.703 5.345-.013 5.203.274-.056.601.513.748 1.3.211 1.137.264.949.283-1 .032-3.359-.403-5.712-1.018-5.503m373.74 3.639c-.342.552-.631 5.664-.32 5.661.554-.006 1.28-2.191 1.28-3.853 0-1.616-.499-2.555-.96-1.808M13.376 150.882c.05 2.578.236 3.668.716 4.2.357.395.729 1.348.826 2.118.097.77.09-.665-.015-3.189-.127-3.026-.366-4.729-.702-5-.28-.226-.595-.681-.701-1.011-.105-.33-.161.967-.124 2.882M386.493 150c0 .77.082 1.085.183.7.1-.385.1-1.015 0-1.4-.101-.385-.183-.07-.183.7m-1.026 2.267c-.147.146-.233 2.981-.191 6.3.066 5.34.101 5.619.3 2.433.179-2.873.313-3.45.665-2.856.354.599.455.221.514-1.939.097-3.524-.346-4.88-1.288-3.938m-370.61 10.898c-.712.44-.484 5.62.235 5.344.375-.143.522.473.561 2.348l.054 2.543.312-2c.626-4.012-.066-8.913-1.162-8.235m369.621 2.517c-.533.533-.702 11.517-.178 11.519.165 0 .251-1.395.191-3.1-.093-2.681-.034-3.007.438-2.41.475.601.549.28.567-2.444.022-3.426-.24-4.343-1.018-3.565M15.875 176.258c-.151.152-.261 1.55-.243 3.109.017 1.558.122 2.608.233 2.333.483-1.198.909-.302 1.045 2.2.08 1.485.133.375.118-2.467-.026-4.826-.295-6.033-1.153-5.175m367.172 3.165c-.136.353-.212 2.833-.17 5.51.043 2.692.141 3.75.219 2.367.133-2.33.568-3.168 1.039-2 .111.275.216-.873.233-2.551.032-3.064-.708-4.926-1.321-3.326M17.063 189.47c-.585.586-.29 4.915.32 4.681.472-.181.608.367.719 2.913.1 2.293.159 1.778.218-1.915.077-4.842-.316-6.619-1.257-5.679m365.166 3.559c-.506.505-.615 1.501-.558 5.1.063 4.04.092 4.201.3 1.671.158-1.934.384-2.769.729-2.7.356.071.5-.593.5-2.3 0-2.617-.044-2.698-.971-1.771m-49.429 2.527c.788.218 1.052.613 1.243 1.86l.243 1.584.057-1.42c.064-1.606-.519-2.399-1.723-2.34-.686.033-.657.085.18.316m-21 2.463c-.558.252-.315.288.8.119.88-.134 1.675-.31 1.767-.391.343-.303-1.799-.076-2.567.272m-14.5 1.857c.385.1 1.015.1 1.4 0 .385-.101.07-.183-.7-.183s-1.085.082-.7.183M18.082 204.3c.068 1.547.289 2.656.518 2.596.232-.061.494 1.367.624 3.4.209 3.254.23 3.115.3-1.963.08-5.781-.059-6.733-.985-6.733-.456 0-.551.563-.457 2.7m258.818-2.024c.385.1 1.015.1 1.4 0 .385-.101.07-.183-.7-.183s-1.085.082-.7.183m56.801 1.924c.004.88.086 1.193.182.695.096-.497.092-1.217-.008-1.6-.1-.382-.179.025-.174.905m46.943 1.879c-.134.672-.212 2.684-.172 4.471.048 2.15.123 2.607.222 1.35.142-1.802.638-2.489 1.01-1.4.094.275.205-.783.247-2.352.083-3.126-.812-4.543-1.307-2.069m-47.343 3.321c.004.88.086 1.193.182.695.096-.497.092-1.217-.008-1.6-.1-.382-.179.025-.174.905m-.408 3.4c0 .77.082 1.085.183.7.1-.385.1-1.015 0-1.4-.101-.385-.183-.07-.183.7m-313.656 4.8c-.055 2.604.043 3.2.53 3.2.463 0 .629.655.736 2.9.085 1.783.167.898.212-2.3.079-5.546-.11-7-.909-7-.353 0-.521.941-.569 3.2m360.216 1.234c-.139.696-.221 3.179-.182 5.516.066 3.975.085 4.069.3 1.45.163-1.992.379-2.769.747-2.694.393.081.49-.543.4-2.568-.126-2.858-.841-3.821-1.265-1.704m-46.952 1.366c.004.88.086 1.193.182.695.096-.497.092-1.217-.008-1.6-.1-.382-.179.025-.174.905m-.8 8.8c.004.88.086 1.193.182.695.096-.497.092-1.217-.008-1.6-.1-.382-.179.025-.174.905M20.4 231c0 2.187.136 2.973.5 2.9.33-.066.58.647.735 2.1.196 1.841.245 1.572.3-1.65.076-4.478-.215-6.35-.985-6.35-.418 0-.55.721-.55 3m357.857 1.3c-.137.825-.215 3.3-.174 5.5.06 3.271.099 3.502.214 1.265.113-2.192.257-2.692.722-2.513.476.183.581-.317.581-2.765 0-3.326-.879-4.299-1.343-1.487m-46.943 2.7c.003 1.1.081 1.503.173.895.092-.609.09-1.509-.005-2-.095-.492-.171.005-.168 1.105m-309.447 6.867c-.565.565-.292 4.533.312 4.533.413 0 .621.601.726 2.1.111 1.587.165 1.306.221-1.15.103-4.532-.329-6.414-1.259-5.483m308.634 1.933c.004.88.086 1.193.182.695.096-.497.092-1.217-.008-1.6-.1-.382-.179.025-.174.905m46.558 2.3c-.139 1.155-.22 3.36-.182 4.9.064 2.509.086 2.582.218.7.138-1.969.62-2.732 1.011-1.6.095.275.207-.985.249-2.8.092-3.973-.857-4.851-1.296-1.2m-46.95 5.1c0 .99.078 1.395.173.9a5.661 5.661 0 000-1.8c-.095-.495-.173-.09-.173.9m-35.6 2.8c0 .99.078 1.395.173.9a5.661 5.661 0 000-1.8c-.095-.495-.173-.09-.173.9M22.8 256.6c0 1.852.142 2.571.495 2.5.296-.06.593.539.743 1.5.213 1.373.256 1.232.301-1 .069-3.459-.309-5.6-.991-5.6-.408 0-.548.666-.548 2.6m271.334 3.4c0 1.65.071 2.325.157 1.5.087-.825.087-2.175 0-3-.086-.825-.157-.15-.157 1.5m82.091-2.041c-.126.204-.306 1.782-.401 3.506-.094 1.724-.08 2.626.032 2.004.125-.697.398-1.057.709-.938.367.141.529-.445.59-2.132.078-2.144-.376-3.335-.93-2.44m-46.924 1.441c.004.88.086 1.193.182.695.096-.497.092-1.217-.008-1.6-.1-.382-.179.025-.174.905m-.408 6.6c0 .77.082 1.085.183.7.1-.385.1-1.015 0-1.4-.101-.385-.183-.07-.183.7M24.04 269.619c.062 2.119.211 2.77.6 2.621.367-.141.561.348.667 1.681.124 1.572.161 1.447.221-.765.102-3.743-.311-6.356-1.003-6.356-.444 0-.549.615-.485 2.819m269.674 1.781c.003 1.1.081 1.503.173.895.092-.609.09-1.509-.005-2-.095-.492-.171.005-.168 1.105m80.907 1.836c-.155 1.78-.178 3.34-.052 3.467.127.127.231-.154.231-.624 0-.595.182-.784.6-.624.499.192.6-.25.6-2.612 0-4.244-.999-3.959-1.379.393M293.32 277.2c0 1.21.075 1.705.167 1.1a8.899 8.899 0 000-2.2c-.092-.605-.167-.11-.167 1.1m-267.853 2.667c-.606.606-.295 5.719.333 5.478.482-.185.6.146.6 1.679 0 1.05.11 1.799.245 1.664.337-.337-.262-9.088-.622-9.088-.159 0-.41.12-.556.267m302.226 1.733c0 .77.082 1.085.183.7.1-.385.1-1.015 0-1.4-.101-.385-.183-.07-.183.7m-34.829 2.48c-.041.937-.321 1.63-.764 1.888-.385.224-.497.413-.249.42.829.022 1.405-1.122 1.24-2.462l-.163-1.326-.064 1.48m80.796 2.42c.033 1.815.135 2.805.227 2.2.091-.605.334-1.1.54-1.1.205 0 .373-.99.373-2.2 0-1.689-.139-2.2-.6-2.2-.49 0-.589.607-.54 3.3m-46.751 4.3c0 .99.078 1.395.173.9a5.661 5.661 0 000-1.8c-.095-.495-.173-.09-.173.9m-300.751 5.138c.021 1.975.165 3.387.319 3.138.537-.87.796.086.811 2.994l.015 2.93.357-2c.378-2.12.061-8.655-.485-10-.214-.527-.335-.595-.356-.2-.025.476-.1.491-.365.074-.191-.302-.317 1.007-.296 3.064m300.343.662c.004.88.086 1.193.182.695.096-.497.092-1.217-.008-1.6-.1-.382-.179.025-.174.905m46.387-.928c-.347.347-.465 2.166-.407 6.308.053 3.727.13 4.633.217 2.52.098-2.409.278-3.3.666-3.3.37 0 .546-.658.581-2.172.062-2.715-.359-4.054-1.057-3.356m-47.179 9.928c0 .99.078 1.395.173.9a5.661 5.661 0 000-1.8c-.095-.495-.173-.09-.173.9m-298.066 1.52c-.675 1.262-.576 4.48.138 4.48.431 0 .618.646.723 2.5.084 1.477.171.618.213-2.1.074-4.825-.269-6.385-1.074-4.88m343.806 2.696c-.137.357-.214 2.84-.171 5.517.049 3.021.132 3.843.219 2.167.108-2.087.278-2.7.747-2.7.495 0 .584-.493.482-2.667-.121-2.572-.745-3.703-1.277-2.317m-46.14 2.584c0 .99.078 1.395.173.9a5.661 5.661 0 000-1.8c-.095-.495-.173-.09-.173.9m-296.831 9.882c-.022 1.715.057 2.893.174 2.618.493-1.149.919-.343 1.058 2 .082 1.375.136.252.119-2.495-.025-4.25-.125-5.014-.67-5.118-.541-.104-.647.363-.681 2.995m296.036-.482c.003 1.1.081 1.503.173.895.092-.609.09-1.509-.005-2-.095-.492-.171.005-.168 1.105m45.74 1.092c-.134.499-.212 2.798-.175 5.108.038 2.31.136 3.24.217 2.066.115-1.66.277-2.085.726-1.913.81.311.835-5.042.027-5.712-.436-.362-.602-.268-.795.451m-340.176 9.59c-.28.28-.466 1.564-.45 3.098.019 1.773.135 2.361.357 1.82.492-1.195.774-.158.927 3.4.074 1.728.16.71.202-2.4.076-5.533-.148-6.806-1.036-5.918m338.965 3.751c-.134.348-.207 2.643-.164 5.1.062 3.446.111 3.804.218 1.567.105-2.209.277-2.9.721-2.9.439 0 .582-.541.582-2.2 0-2.198-.773-3.09-1.357-1.567M30.836 348.257c.055 2.756.159 3.303.516 2.7.363-.614.491-.114.673 2.643.212 3.184.23 3.069.295-1.8.075-5.662-.113-7-.983-7-.453 0-.555.702-.501 3.457m337.017 1.377c-.139.696-.219 2.998-.177 5.116.054 2.754.115 3.167.215 1.45.089-1.543.356-2.564.746-2.86.44-.334.574-1.043.485-2.569-.138-2.38-.886-3.051-1.269-1.137m-335.586 8.633c-.519.519-.303 5.74.233 5.633.345-.069.571.766.729 2.7.216 2.631.234 2.547.296-1.4.091-5.75-.298-7.893-1.258-6.933m334.933 2.524c-.487.307-.606 1.498-.634 6.294-.019 3.253.033 4.504.116 2.779.125-2.595.256-3.097.755-2.905.513.197.593-.282.529-3.164-.041-1.867-.095-3.392-.12-3.389-.025.003-.316.177-.646.385m-334 13.422c0 2.335.126 2.987.577 2.987.388 0 .627.556.73 1.7.087.963.184.291.223-1.55.083-3.835-.212-5.619-.975-5.912-.443-.17-.555.391-.555 2.775m332.594.197c-.144.232-.322 2.53-.397 5.106-.078 2.691-.021 3.833.134 2.684.172-1.28.449-1.964.769-1.9.364.073.5-.709.5-2.876 0-2.786-.402-3.991-1.006-3.014M34.4 387.2c0 1.832.138 2.4.581 2.4.431 0 .618.646.723 2.5.116 2.05.156 1.843.219-1.15.09-4.27-.207-6.15-.973-6.15-.406 0-.55.63-.55 2.4m329.85 2.05c-.137.688-.217 2.713-.176 4.5.056 2.456.11 2.737.221 1.15.105-1.499.313-2.1.726-2.1.441 0 .579-.572.579-2.4 0-2.664-.895-3.426-1.35-1.15M35.6 400.2c0 2.044.128 2.6.6 2.6.461 0 .6.511.6 2.2v2.2h1.843c1.473 0 1.796.12 1.612.6-.272.71 1.531.869 1.961.173.398-.643.007-.846-2.087-1.082-2.567-.289-2.928-.753-2.933-3.762-.007-3.505-.39-5.529-1.048-5.529-.408 0-.548.666-.548 2.6m327.4 3.805c-.157 1.563-.177 2.952-.043 3.085.134.134.243-.147.243-.623 0-.517.251-.867.621-.867.497 0 .597-.414.5-2.069-.185-3.161-.985-2.875-1.321.474m-4.3 3.071c-1.195.312-.823 1.324.487 1.324.864 0 1.128-.155.969-.57-.15-.393.135-.624.913-.74.969-.146.931-.172-.269-.184-.77-.007-1.715.069-2.1.17m-315.5 1.187c.33.11.865.286 1.189.39.518.167.518.235 0 .562-.424.269-.166.374.925.379 1.391.006 1.479-.059 1.086-.794-.329-.615-.817-.793-2.114-.768-.927.017-1.416.121-1.086.231m310.784.566c-.405.758-.346.819.686.7.622-.071 1.05-.309.953-.529-.098-.22.352-.514 1-.653 1.042-.223.984-.258-.509-.3-1.325-.037-1.781.13-2.13.782m-306.058.777c.509.213.813.569.676.791-.143.232.198.403.804.403 1.858 0 1.108-1.382-.809-1.491-1.358-.077-1.459-.032-.671.297m302.341-.139c-.551.55-.238 1.333.533 1.333.44 0 .8-.257.8-.571 0-.314.315-.653.7-.753.385-.101.145-.204-.533-.23-.679-.025-1.354.074-1.5.221m-298.536 1.209c.776.125 1.063.363.913.754-.154.401.082.57.798.57 2.002 0 1.001-1.392-1.045-1.454-.989-.03-1.288.029-.666.13m294.536-.009c-.147.146-.267.506-.267.8 0 .702 1.072.686 1.48-.022.176-.306.68-.645 1.12-.754.484-.12.233-.217-.633-.245-.789-.025-1.554.074-1.7.221m-290.83 1.273c-.136.22.105.296.562.176.868-.227 1.12.477.301.838-.275.121.04.181.7.133 1.663-.121 1.613-1.247-.062-1.41-.695-.067-1.37.051-1.501.263M341.8 412a.835.835 0 000 .8c.378.611 1.8.476 1.8-.171 0-.314.315-.653.7-.753.385-.101.036-.204-.776-.23-.812-.025-1.588.134-1.724.354m-282.1 1.087c1.109.167 1.528.854.6.982-.275.038.67.173 2.1.3 1.774.158 2.568.39 2.5.731-.065.325.396.5 1.314.5 1.29 0 1.377-.07.986-.8-.338-.631-.838-.8-2.371-.8-1.359 0-2.013-.181-2.174-.6-.165-.43-.771-.583-2.142-.54-1.173.037-1.487.124-.813.227m277.645.313c-.162.42-.817.6-2.188.6-1.473 0-1.957.148-1.957.6 0 .453-.489.6-2 .6-1.511 0-2 .147-2 .6 0 .333.356.6.8.6.44 0 .8-.173.8-.385 0-.212.84-.369 1.867-.348 1.283.025 2.014-.163 2.335-.603.32-.437 1.185-.663 2.731-.713 1.782-.059 2.173-.183 1.84-.584-.322-.388-.155-.549.702-.678.719-.108.436-.191-.788-.229-1.371-.043-1.977.11-2.142.54M68.4 415.198c-.513.333-.499.391.1.396.385.003.7.186.7.406 0 .22.36.4.8.4.444 0 .8-.267.8-.6 0-.33-.165-.6-.367-.6-.202 0-.607-.088-.9-.196-.293-.107-.803-.02-1.133.194m4.8 1.602c0 .533.267.8.8.8.949 0 1.074-1.009.167-1.357-.917-.352-.967-.324-.967.557m252.5-.535c-.78.315-.587 1.335.253 1.335.417 0 .847-.357.963-.8.206-.787-.176-.955-1.216-.535m-248.729 1.656c0 .503.339.748 1.115.807 1.367.104 1.539-.921.214-1.276-1.286-.344-1.329-.329-1.329.469m244.629-.393c-1.063.482-.868 1.272.314 1.272.848 0 1.115-.191 1.115-.8 0-.822-.38-.947-1.429-.472m-241.1 1.148c.385.1.7.439.7.753 0 .425.561.571 2.2.571 1.689 0 2.2.139 2.2.6 0 .694 1.42.815 1.828.155.389-.629-.589-1.14-2.228-1.162-.77-.01-1.749-.283-2.176-.606-.428-.323-1.328-.566-2-.541-.673.026-.909.129-.524.23m236.557.324c-.33.33-1.228.6-1.996.6-1.789 0-2.661.342-2.661 1.043 0 .327.412.557 1 .557.622 0 1-.227 1-.6 0-.461.511-.6 2.2-.6 1.631 0 2.2-.146 2.2-.567 0-.311.225-.657.5-.768.275-.111.018-.216-.571-.233-.59-.018-1.342.238-1.672.568m-228.126 2.076c.776.125 1.063.363.913.754-.154.401.082.57.798.57 2.002 0 1.001-1.392-1.045-1.454-.989-.03-1.288.029-.666.13m219.969-.011c-.803.324-.575 1.335.3 1.335.44 0 .8-.258.8-.573 0-.319.489-.648 1.1-.74.918-.14.868-.172-.3-.195-.77-.016-1.625.062-1.9.173m-215.6 1.194c.816.233.919.786.2 1.076-.275.111.098.216.829.233 1.954.047 1.634-1.339-.332-1.438-.768-.039-1.082.02-.697.129m211.3.141c-.376.608.15 1.2 1.066 1.2.548 0 .747-.19.599-.575-.128-.334.063-.65.457-.754.373-.098.104-.199-.598-.225-.702-.025-1.388.134-1.524.354m-207.8 1.175c.55.163.955.505.9.76-.066.309.639.465 2.1.465 1.689 0 2.2.139 2.2.6 0 .333.356.6.8.6.533 0 .8-.267.8-.8 0-.691-.267-.8-1.957-.8-1.371 0-2.026-.18-2.188-.6-.158-.414-.762-.588-1.942-.56-1.407.033-1.535.092-.713.335m203.754.201c-.172.448-.793.624-2.209.624-1.382 0-2.039.179-2.2.6-.162.42-.817.6-2.188.6-1.473 0-1.957.148-1.957.6 0 .461-.511.6-2.2.6-1.736 0-2.2.133-2.2.63 0 .438-.335.608-1.1.558-2.157-.142-2.9.014-2.9.612 0 .665 1.455.836 1.668.196.074-.223 1.01-.443 2.08-.489 1.141-.05 2.026-.296 2.142-.596.129-.336 1.018-.511 2.602-.511 2.093 0 2.341-.078 1.908-.6-.519-.626.428-.802 3.299-.612.838.055 1.043-.073.864-.54-.195-.509.26-.631 2.701-.73 2.291-.092 2.936-.25 2.936-.718 0-.87-2.921-1.072-3.246-.224m3.046.224c0 .22-.259.4-.576.4-.317 0-.688-.18-.824-.4-.136-.22.123-.4.576-.4.453 0 .824.18.824.4m-198.5 1.889c.789.098 1.3.388 1.3.736 0 .417.509.575 1.856.575 1.29 0 2.008.209 2.357.685.422.577.601.601 1.139.155.989-.821.388-1.24-1.776-1.24-1.49 0-1.976-.148-1.976-.6 0-.465-.472-.586-2.1-.536-1.439.044-1.691.115-.8.225m8.3 2.138l-1.2.278 1.3.048c.715.026 1.3.24 1.3.476 0 .529 1.239.321 1.251-.209.013-.597-1.335-.899-2.651-.593m4.876 1.541c.249.952 1.724 1.15 1.724.232 0-.33-.165-.6-.367-.6-.202 0-.639-.104-.971-.232-.453-.174-.549-.024-.386.6m162.002-.488c-.397.103-.652.397-.567.654.243.729 1.663.546 1.813-.234.137-.713.027-.75-1.246-.42m-158.4 1.199c.565.11.799.376.657.746-.157.409.08.575.822.575.625 0 1.043-.223 1.043-.557 0-.679-.903-1.061-2.333-.989-.909.047-.937.08-.189.225m153.771.082c-.303.192-.428.55-.277.794.399.645 1.828.547 1.828-.126 0-.314.315-.653.7-.753.388-.102.166-.201-.5-.223-.66-.023-1.448.116-1.751.308M125.7 431.443c.385.119.7.472.7.786 0 .425.561.571 2.2.571 1.689 0 2.2.139 2.2.6 0 .373.378.6 1 .6.588 0 1-.23 1-.557 0-.694-.869-1.043-2.599-1.043-.734 0-1.398-.192-1.476-.426-.078-.234-.948-.498-1.934-.586-.985-.089-1.476-.064-1.091.055m145.757.357c-.33.33-1.228.6-1.996.6-1.86 0-2.657.344-2.393 1.033.29.756 1.732.729 1.732-.033 0-.461.511-.6 2.2-.6 1.639 0 2.2-.146 2.2-.571 0-.314.315-.653.7-.753.385-.101.128-.204-.571-.23-.7-.025-1.542.224-1.872.554m-137.131 2.222c.509.204.813.553.676.775-.137.221.102.403.532.403.968 0 1.435-1.049.608-1.367-.334-.128-1.088-.222-1.675-.208-1.058.025-1.059.029-.141.397m129.141-.155c-.547.547-.24 1.333.52 1.333.519 0 .713-.195.568-.572-.157-.41.159-.619 1.113-.736 1.243-.153 1.223-.168-.301-.228-.899-.035-1.754.056-1.9.203M138.5 435.059c.385.11.7.456.7.77s.373.571.829.571c1.538 0 .751-1.391-.832-1.47-.768-.039-1.082.02-.697.129m120.7.541c0 .533.267.8.8.8.44 0 .8-.257.8-.571 0-.314.315-.653.7-.753.385-.101.025-.204-.8-.23-1.249-.038-1.5.088-1.5.754m-117.757.73c-.112.181.193.316.677.3.502-.017.837.185.78.47-.07.352.562.5 2.143.5 1.829 0 2.2.111 2.012.6-.189.493.204.6 2.2.6 1.816 0 2.381.13 2.233.514-.143.373.369.536 1.854.591 1.128.041 2.113.26 2.188.485.215.644 1.67.479 1.67-.19 0-.445-.468-.6-1.813-.6-1.242 0-1.885-.189-2.042-.6-.162-.42-.817-.6-2.188-.6-1.352 0-1.926-.154-1.857-.5.067-.334-.563-.542-1.899-.626-1.21-.076-2.125-.352-2.319-.7-.346-.617-3.286-.815-3.639-.244m113.502.27c-.165.429-.835.6-2.345.6-1.51 0-2.18.171-2.345.6-.158.413-.804.6-2.072.6-1.998 0-2.559 1.26-.681 1.528.674.096.835-.028.653-.5-.202-.528.146-.628 2.19-.628 1.996 0 2.389-.107 2.2-.6-.19-.494.218-.601 2.312-.606 1.727-.004 2.354-.126 1.954-.379-.518-.327-.518-.395 0-.562.324-.104.859-.28 1.189-.39.33-.11-.171-.214-1.113-.231-1.175-.022-1.784.156-1.942.568m-12.545 3.6c0 .33.283.6.629.6.345 0 .898-.27 1.228-.6.533-.533.464-.6-.628-.6-.826 0-1.229.197-1.229.6m-82.932 1.061c-.155.593.036.739.969.739 1.433 0 1.586-1.026.194-1.292-.703-.134-1.023.018-1.163.553m79.832-.579c-1.187.229-1.175 1.318.014 1.318.648 0 .915-.233.915-.8 0-.44-.007-.775-.015-.746-.008.03-.419.133-.914.228m-76.2 1.183c.275.111.5.457.5.768 0 .338.404.567 1 .567.588 0 1-.23 1-.557 0-.641-.878-1.057-2.133-1.011-.477.017-.642.122-.367.233m71.6.011c-1.086.283-.85 1.324.3 1.324.599 0 1-.229 1-.571 0-.314.315-.653.7-.753.441-.115.329-.183-.3-.183-.55 0-1.315.082-1.7.183m-67.769 1.214c.778.116 1.063.347.913.74-.159.415.105.57.969.57.653 0 1.187-.174 1.187-.386 0-.633-1.456-1.218-2.874-1.154-1.255.057-1.266.069-.195.23m63.369-.014c-.385.1-.7.34-.7.531 0 .192-.853.404-1.896.471-2.176.14-3.166 1.522-1.091 1.522.789 0 1.012-.159.842-.6-.189-.493.204-.6 2.2-.6 1.949 0 2.387-.114 2.21-.575-.128-.334.063-.65.457-.754.397-.104.264-.178-.322-.178-.55 0-1.315.082-1.7.183m-59.2 1.206c.495.096.9.431.9.746 0 .369.426.572 1.2.572 1.376 0 1.438-.105.571-.971-.37-.371-1.232-.607-2.1-.575-.93.035-1.14.119-.571.228m4.6 1.177c.385.11.7.456.7.77s.373.571.829.571c1.538 0 .751-1.391-.832-1.47-.768-.039-1.082.02-.697.129m46.167.008c-.608.607-.208 1.333.733 1.333.596 0 1-.229 1-.567 0-.311.225-.657.5-.768.275-.111-.055-.216-.733-.233-.679-.018-1.354.088-1.5.235m-42.567 1.209c.385.1.7.439.7.753 0 .425.561.571 2.2.571 1.689 0 2.2.139 2.2.6 0 .333.356.6.8.6.533 0 .8-.267.8-.8 0-.694-.267-.8-2.013-.8-1.419 0-2.08-.177-2.242-.6-.152-.395-.729-.584-1.688-.554-.801.026-1.142.129-.757.23m38.567-.009c-.551.55-.238 1.333.533 1.333.44 0 .8-.258.8-.573 0-.319.489-.648 1.1-.74.807-.123.665-.183-.533-.227-.899-.033-1.754.06-1.9.207m-4.41 1.533c-.358.358-1.336.6-2.428.6-1.562 0-1.829.117-1.829.8 0 .584.267.8.987.8.714 0 .924-.167.758-.6-.23-.598.934-.812 3.355-.616.566.046.9-.15.9-.528 0-.33.405-.678.9-.774.569-.109.359-.193-.571-.228-.841-.031-1.729.203-2.072.546m-25.926.886c.603.115.853.378.712.746-.173.451.269.568 2.157.568 1.947 0 2.333.108 2.145.6-.167.435.045.6.769.6.953 0 1.7-.853 1.192-1.361-.132-.131-1.09-.239-2.13-.239-1.311 0-1.961-.184-2.121-.6-.16-.417-.752-.583-1.942-.546-.978.032-1.313.131-.782.232m17.389 1.469c-.176.306-.68.645-1.12.754-.44.109.139.219 1.287.245 1.656.036 2.043-.072 1.869-.524-.15-.393.135-.624.913-.74.745-.112.49-.191-.749-.23-1.236-.039-1.99.13-2.2.495m-9.22.932c.605.091 1.1.334 1.1.54 0 .205.36.373.8.373.444 0 .8-.267.8-.6 0-.458-.451-.586-1.9-.54-1.174.037-1.479.124-.8.227m5.317.085c-.126.205-.002.515.276.689.938.585 1.507.473 1.507-.296 0-.8-1.348-1.097-1.783-.393" fill="#e2d17b"></path>
      <path d="M399.5 1.83c-.165.167-.3 1.299-.3 2.517 0 1.555.126 2.087.423 1.79.232-.232.367-1.365.3-2.517-.068-1.151-.258-1.957-.423-1.79M0 9.4c0 1.467.174 2.6.4 2.6.22 0 .4 1.001.4 2.224 0 1.672.124 2.149.5 1.923.34-.204.324-.084-.049.376-.465.574-.465.678 0 .683.464.005.463.061-.002.355-.308.195-.418.565-.25.837.899 1.456 1.401-4.229.635-7.198a43.617 43.617 0 01-.616-2.9C.612 5.904 0 6.565 0 9.4m398.35 6.151c-.12 2.986-.019 4.049.383 4.049.184 0 .354-.225.38-.5.025-.275.127-1.258.227-2.184.123-1.141.001-1.833-.379-2.149-.46-.381-.57-.239-.611.784M1.867 26.9c.291 3.582.277 3.516.706 3.087.417-.417.43-4.135.016-4.805-.578-.935-.88-.217-.722 1.718M397.244 30c-.015 2.268.082 2.825.398 2.283.465-.8.808-5.411.347-4.665-.216.35-.348.331-.509-.073-.119-.3-.226.805-.236 2.455M3.364 38.712c-.357.236-.432 1.837-.2 4.268.02.218.217.199.459-.043.572-.572.325-4.61-.259-4.225M396 43.724c0 2.75.705 4.539.858 2.176.189-2.911.111-3.927-.346-4.553-.432-.591-.512-.22-.512 2.377M4.362 51.276c-.172 2.404-.11 3.924.162 3.924.178 0 .195.208.038.462-.177.286-.11.353.176.176.566-.35.619-4.494.062-4.838-.22-.136-.417-.012-.438.276M395.3 53.465c-.337.136-.5 1.174-.5 3.192 0 1.924.145 2.901.407 2.739.223-.138.302-.419.176-.624-.127-.204-.085-.597.093-.872s.324-1.445.324-2.6v-2.068c0 .017-.225.122-.5.233M5.388 66.135c.16 4.094.914 4.665.971.736.037-2.557-.074-3.271-.511-3.271-.43 0-.536.584-.46 2.535m388.504.907c-.161.16-.288 1.206-.283 2.325l.009 2.033.631-1.28c.621-1.259.33-3.766-.357-3.078M6.662 77.1c-.102.165-.151 1.458-.108 2.872.113 3.727.932 3.6 1.005-.155.051-2.659-.292-3.697-.897-2.717M392.9 78.998c-.598.679-.673 4.848-.093 5.206.223.138.285.447.138.685-.149.241-.085.321.143.18.301-.186.654-6.752.358-6.654-.025.009-.271.271-.546.583m-176.419 8.681c-.836.836-.685 172.268.153 172.589.349.134 3.364-.259 6.7-.873 3.336-.614 6.966-1.259 8.066-1.432 1.1-.174 3.53-.609 5.4-.968 1.87-.359 4.93-.919 6.8-1.244l5.4-.941c1.1-.192 4.7-.814 8-1.383 3.3-.569 7.44-1.301 9.2-1.626 9.731-1.797 16.138-2.955 17.2-3.108.66-.095 3.427-.58 6.15-1.076 5.534-1.009 5.77-.941 5.444 1.583-.1.77-.364 5.27-.587 10-.958 20.258-1.368 26.435-1.779 26.775-.235.194-3.29 1.096-6.789 2.003a970.727 970.727 0 00-9.4 2.483c-1.671.458-3.579.971-4.239 1.14-.66.169-2.955.778-5.1 1.353-2.145.575-5.655 1.508-7.8 2.073a2386.062 2386.062 0 00-13.5 3.581c-1.32.358-4.11 1.101-6.2 1.652-6.771 1.786-9.776 2.586-11 2.929-.66.184-3.27.878-5.8 1.54-5.335 1.396-6.095 1.659-6.494 2.242-.492.718-.371 45.604.124 46.099.307.307 1.482.153 4.1-.537 10.125-2.67 12.986-3.414 14.27-3.709.77-.178 2.84-.728 4.6-1.224 1.76-.496 3.83-1.036 4.6-1.2.77-.164 2.84-.699 4.6-1.189 1.76-.489 5.9-1.58 9.2-2.423 3.3-.844 7.08-1.83 8.4-2.192 1.32-.361 4.38-1.172 6.8-1.801 9.316-2.422 13.687-3.574 16-4.219 1.32-.367 3.177-.824 4.127-1.015.949-.191 1.882-.443 2.073-.561.191-.118 1.124-.377 2.073-.577 1.838-.385 12.138-3.063 17.927-4.66 1.21-.334 2.83-.751 3.6-.927 5.551-1.272 5.426-1.137 5.755-6.236.142-2.2.433-5.98.646-8.4.213-2.42.583-6.92.822-10 .943-12.163 1.559-20.137 1.778-23 .125-1.65.487-6.24.802-10.2.316-3.96.853-10.8 1.193-15.2.341-4.4.804-10.25 1.029-13 .73-8.916 1.622-20.477 1.991-25.8.199-2.86.54-7.09.759-9.4.514-5.424.528-9.489.034-9.795-.215-.133-2.78.051-5.7.409l-9.709 1.189c-2.42.297-6.74.819-9.6 1.16-2.86.341-5.74.712-6.4.824-.66.113-2.82.383-4.8.6-1.98.218-5.85.675-8.6 1.018-2.75.342-6.53.793-8.4 1.001-1.87.209-4.57.553-6 .764-1.43.212-5.21.676-8.4 1.03-3.19.355-6.69.796-7.777.981-1.088.184-2.214.244-2.503.133-.428-.164-.506-6.591-.422-35.058L255.4 135l41.715-.2c34.42-.165 41.773-.294 42.048-.74.183-.297.448-2.097.587-4 .139-1.903.432-5.26.65-7.46.218-2.2.671-7.24 1.007-11.2.335-3.96.89-10.17 1.231-13.8.342-3.63.563-7.41.492-8.4l-.13-1.8-63.019-.101c-48.684-.078-63.128.008-63.5.38m-70.401.401c-.371.371-.48 24.021-.48 104.013 0 84.777-.095 103.568-.522 103.732-.444.171-3.986-.743-15.678-4.045-1.1-.31-3.62-1.001-5.6-1.534-1.98-.534-4.95-1.362-6.6-1.842-1.65-.479-3.54-1.015-4.2-1.191-.66-.176-2.64-.721-4.4-1.213a555.95 555.95 0 00-4.4-1.214 1777.5 1777.5 0 01-8.6-2.388c-7.897-2.207-11.077-3.089-13-3.607-.66-.177-2.1-.579-3.2-.892-9.022-2.569-10.269-2.835-10.629-2.265-.479.755-.47 44.39.008 45.146.31.49 5.348 2.035 15.021 4.607 1.1.293 4.97 1.377 8.6 2.41 3.63 1.033 8.22 2.315 10.2 2.849 1.98.533 4.59 1.254 5.8 1.602 6.948 1.997 8.725 2.386 8.165 1.788-.239-.256-1.139-.563-2-.682-.861-.12-1.925-.38-2.365-.579-.44-.198-1.52-.533-2.4-.744-3.837-.918-5.239-1.306-5.815-1.609-.339-.178-1.419-.456-2.4-.618-.982-.162-1.965-.433-2.185-.603-.22-.17-1.03-.434-1.8-.588-.77-.153-1.94-.439-2.6-.635a668.72 668.72 0 00-8.4-2.379 950.42 950.42 0 01-3.5-.962l-4.6-1.271c-1.265-.349-2.84-.819-3.5-1.043-.66-.225-1.92-.536-2.8-.692-.88-.156-2.005-.503-2.5-.771l-.9-.488V298.21c0-24.24-.136-23.057 2.531-22.09.918.333 2.749.9 4.069 1.262 1.32.361 3.3.913 4.4 1.226 1.1.314 3.08.862 4.4 1.218 10.629 2.871 14.412 3.926 17.114 4.774 1.053.33 2.257.6 2.676.6.42 0 .871.175 1.003.388.132.214 1.137.508 2.232.653 1.096.146 2.09.421 2.208.612.118.191.543.347.945.347.401 0 1.606.261 2.676.58 1.07.319 3.026.878 4.346 1.244 1.32.365 3.3.918 4.4 1.228 4.568 1.29 6.317 1.78 8.5 2.385 1.265.351 3.11.892 4.1 1.202.99.311 2.194.564 2.676.563.482-.001.978.162 1.102.363.125.201.972.491 1.883.645.912.154 2.274.538 3.028.853 1.653.691 2.835.392 3.12-.79.116-.48.161-47.186.101-103.79-.11-102.632-.108-102.919.69-103.112.44-.106 8.81-.143 18.6-.082l17.8.111.109 131.2c.113 135.74.132 133.235-1.016 132.636-.381-.198-1.863-.668-3.293-1.044a255.27 255.27 0 01-4.4-1.2c-.99-.285-2.88-.826-4.2-1.202-1.32-.377-3.21-.924-4.2-1.215-.99-.292-2.88-.816-4.2-1.166-1.32-.35-3.21-.901-4.2-1.225-.99-.323-2.25-.578-2.8-.567-1.284.027.62.703 6.2 2.2 2.2.59 4.9 1.329 6 1.642 1.1.313 3.62 1.012 5.6 1.553 7.873 2.154 9.562 2.641 9.918 2.861.204.126.529-.019.721-.322.519-.82.467-263.406-.053-264.377-.511-.955-36.562-1.238-37.506-.294m196.23.42c.267.326.284 1.283.051 2.754-.197 1.239-.527 4.749-.733 7.8-.475 7.004-1.107 14.401-1.67 19.546-.241 2.2-.581 6.281-.755 9.069-.175 2.788-.437 5.263-.584 5.5-.187.303-12.503.431-41.614.431-37.056 0-41.413.065-41.976.629-.909.908-.966 70.593-.058 71.347.576.478.95.443 12.629-1.198 1.87-.262 4.12-.547 5-.632 2.661-.257 11.441-1.352 14-1.746a91.36 91.36 0 015.2-.605 84.2 84.2 0 005.2-.621c1.32-.213 4.11-.565 6.2-.783a543.886 543.886 0 0018-2.205c6.777-.961 11.752-1.358 12.157-.972.21.2.089 2.878-.292 6.463a530.805 530.805 0 00-1.873 22.123c-.18 2.86-.521 7.54-.758 10.4-.877 10.61-1.647 20.476-1.793 23-.352 6.075-1.08 15.244-1.461 18.4-.226 1.87-.581 5.92-.788 9l-.767 11.4c-.214 3.19-.579 7.69-.81 10-.231 2.31-.582 6.835-.78 10.055-.404 6.588-.661 7.367-2.525 7.665-.721.115-2.57.586-4.11 1.048-1.54.461-3.34.942-4 1.068-.66.126-1.56.384-2 .573-.44.189-1.7.55-2.8.8l-4.073.93c-1.14.26-2.205.606-2.367.767-.161.162-.693.294-1.181.294-.488 0-1.763.261-2.833.58-1.07.319-3.026.867-4.346 1.219-1.32.352-3.3.892-4.4 1.201-1.1.309-2.45.641-3 .737-.55.096-2.44.569-4.2 1.049-1.76.481-3.83 1.018-4.6 1.193-.77.176-2.84.725-4.6 1.221-1.76.496-3.83 1.049-4.6 1.229-.77.18-2.48.62-3.8.978-1.32.358-3.39.895-4.6 1.193-1.21.298-3.28.834-4.6 1.191-1.32.358-3.21.828-4.2 1.046-.99.217-2.113.568-2.495.779-.382.211-.996.384-1.364.384-.369 0-1.587.264-2.706.586-2.233.644-5.045 1.391-9.035 2.402-1.43.362-3.5.908-4.6 1.213-1.1.305-2.36.634-2.8.731-.44.096-2.24.579-4 1.073-1.76.493-3.83 1.031-4.6 1.196-.77.164-1.715.431-2.1.592-.662.277-.7-.948-.7-22.504v-22.797l1.9-.615c1.045-.338 2.577-.739 3.404-.891.828-.152 1.603-.436 1.724-.631s.704-.354 1.296-.353c.592.001 1.886-.261 2.876-.582 3.62-1.173 5.965-1.82 6.6-1.82.604 0 2.857-.612 6.2-1.685.77-.247 2.03-.589 2.8-.76.77-.171 2.434-.595 3.698-.941 1.264-.346 3.334-.909 4.6-1.251 2.138-.577 3.215-.852 8.769-2.245 1.137-.285 2.202-.653 2.367-.818.164-.165.699-.3 1.187-.3.488 0 1.853-.28 3.033-.622 3.461-1.004 9.314-2.569 18.046-4.824 1.375-.355 3.297-.895 4.271-1.2.974-.305 2.095-.554 2.491-.554 1.701 0 1.988-1.436 2.379-11.883.205-5.454.532-11.627.728-13.717.196-2.09.328-6.41.294-9.6l-.063-5.8-2 .067c-1.1.037-2.9.253-4 .482-3.488.723-10.311 1.994-14.2 2.644-4.791.801-8.839 1.537-10.4 1.892-.99.225-2.88.554-4.2.731-3.402.457-9.35 1.504-16.166 2.845-1.191.234-3.081.577-4.2.762-2.169.358-7.203 1.257-12.434 2.22-1.76.324-4.19.738-5.4.919-1.21.182-2.965.461-3.9.619l-1.7.289v-85.602c0-68.107.102-85.643.5-85.803 1.232-.497 124.602-.265 125.01.235M7.639 92.001c-.067 2.299.03 2.799.54 2.799.824 0 .895-4.474.082-5.15-.443-.367-.554.054-.622 2.351M391.2 95.767c0 2.166.158 3.433.427 3.433.245 0 .319-.341.173-.8-.15-.474-.072-.8.192-.8.64 0 .36-4.886-.292-5.102-.374-.123-.5.701-.5 3.269M9.3 103.065c-.775.313-.682 4.935.1 4.935.472 0 .6-.556.6-2.6 0-1.43-.045-2.586-.1-2.568-.055.017-.325.122-.6.233m381.2 2.8c-.729.294-.677 4.781.058 5.063.444.171.558-.351.558-2.557 0-1.524-.026-2.757-.058-2.739-.032.017-.283.122-.558.233M10 117.434c0 .715.109 1.585.243 1.933.479 1.248.957.598.957-1.3 0-1.452-.149-1.934-.6-1.934-.41 0-.6.412-.6 1.301m378.8 3.379c0 1.5.147 1.987.6 1.987.442 0 .6-.462.6-1.757 0-1.193-.193-1.831-.6-1.988-.484-.185-.6.155-.6 1.758M11.238 131.159c.057 1.939.24 2.841.576 2.841.708 0 .577-5.268-.136-5.507-.402-.134-.504.48-.44 2.666m376.629 1.108c-.523.522-.272 3.631.333 4.133.522.433.6.18.6-1.951 0-2.262-.256-2.86-.933-2.182m-375.274 9.808c-.373.97-.034 5.725.407 5.725.536 0 .749-5.411.233-5.927-.276-.276-.482-.21-.64.202m374.489 2.616c-.82 1.266-.656 5.843.179 5.008.209-.209.326-1.532.26-2.94-.069-1.451-.259-2.347-.439-2.068M13.2 154.546c0 .36.202.654.449.654.328 0 .325.149-.009.552-.646.778-.135 4.915.607 4.915.933 0 .74-4.503-.247-5.758-.592-.753-.8-.847-.8-.363m372.44 6.321c.05 2.775.468 4.315.66 2.433.359-3.523.288-5.567-.192-5.567-.394 0-.511.785-.468 3.134m-371.069 9.24c.018 1.244.222 2.091.529 2.193.717.239.689-3.742-.029-4.017-.397-.153-.521.3-.5 1.824m369.829 3.96c0 2.487.718 4.023.857 1.833.231-3.635.163-4.567-.331-4.567-.383 0-.526.743-.526 2.734M15.915 181.7c-.155.457-.15 1.209.024 3.824.13 1.958.861.306.861-1.948 0-2.16-.458-3.131-.885-1.876m367.297 5.4c.01 1.947.084 2.177.479 1.5.549-.94.72-2.121.449-3.1-.414-1.496-.939-.59-.928 1.6m-366.21 7.4c-.147.427-.12 1.278.159 5.024.127 1.697.73-.35.799-2.71.075-2.567-.44-3.812-.958-2.314m365.213 2.676c-.337.545-.159 5.224.198 5.224.427 0 .775-1.55.782-3.476.005-1.634-.497-2.53-.98-1.748M18.052 209.567c.157 4.566 1.135 5.422 1.142 1 .005-3.016-.099-3.634-.613-3.634-.506 0-.603.484-.529 2.634m363.248.298c-.635.256-.667 3.585-.038 3.973.275.171.353.111.193-.149a.5.5 0 01.146-.69c.228-.14.366-.963.307-1.827-.06-.864-.108-1.557-.108-1.54 0 .017-.225.122-.5.233M19.277 223.034c.182 3.327.989 3.601 1.078.367.059-2.142-.04-2.601-.564-2.601-.521 0-.615.407-.514 2.234m360.596.026c-.15.15-.273 1.248-.273 2.44 0 2.787.943 2.713 1.124-.087.119-1.845-.273-2.93-.851-2.353m.237 4.872c-.271.167-.332.509-.145.812.251.406.383.368.589-.168.319-.832.182-1.031-.444-.644m-359.491 6.037c-.458.742-.107 4.388.444 4.6.412.158.537-.344.537-2.158 0-2.214-.442-3.314-.981-2.442m357.781 5.447c0 2.733.07 3.024.617 2.57.77-.639.672-5.227-.117-5.488-.371-.122-.5.63-.5 2.918m-356.687 9.795c.096 1.546.319 2.941.495 3.1.176.159.198.076.05-.183-.149-.26-.088-.586.135-.724.717-.443.512-5.004-.224-5.004-.531 0-.603.444-.456 2.811m355.987.254c-.321.129-.5 1.047-.5 2.556 0 1.965.103 2.314.622 2.115.485-.186.597-.757.506-2.587a184.786 184.786 0 00-.122-2.317c-.003.017-.231.122-.506.233M23.073 259.06c-.15.15-.273 1.158-.273 2.24 0 2.499.942 2.428 1.126-.085.121-1.669-.293-2.715-.853-2.155m353.427 3.205c-.615.248-.676 3.579-.073 3.952.235.145.327.525.205.844-.123.319-.058.479.142.355.201-.124.353-1.394.338-2.821-.015-1.427-.047-2.581-.07-2.563a7.787 7.787 0 01-.542.233M24.458 272.356c-.523.331-.508 2.115.045 5.357.358 2.097.546 1.467.636-2.122.05-1.975.039-3.588-.024-3.585-.063.003-.359.161-.657.35M374.8 277.17c0 1.359.181 2.014.6 2.175.483.185.6-.151.6-1.715 0-1.359-.181-2.014-.6-2.175-.483-.185-.6.151-.6 1.715m-349.446 8.605c-.373.973.019 5.55.489 5.707.296.098.469-.923.521-3.068.073-3.01-.397-4.236-1.01-2.639m348.503 3.325c-.37 2.238-.308 4.021.15 4.304.223.138.285.447.138.685-.148.24-.085.321.14.182.509-.314.683-6.671.183-6.671-.2 0-.475.675-.611 1.5M26.263 300.381c.165 2.96.317 3.572.776 3.114.379-.38.244-4.395-.157-4.658-.199-.13-.457-.507-.574-.837-.116-.33-.137.742-.045 2.381m346.576 3.819c.059 2.541.497 4.14.685 2.5.364-3.178.274-5.5-.212-5.5-.414 0-.526.708-.473 3m-345.397 8.9c.063 2.238.121 2.5.558 2.5.22 0 .4-.9.4-2 0-1.334-.167-2-.5-2-.318.001-.485.545-.458 1.5m344.158 3.667c0 1.199.195 2.045.5 2.168.4.161.4.208 0 .233-.589.038-.686 1.232-.1 1.232.22 0 .406-.045.412-.1.474-3.803.422-5.5-.168-5.5-.505 0-.644.426-.644 1.967m-342.928 8.19c-.118.306-.151.891-.074 1.3.078.409.155 1.148.171 1.643.067 1.957.831.761.831-1.3 0-2.075-.454-2.878-.928-1.643m341.728 5.21c0 2.196.509 3.095.755 1.333.297-2.123.212-3.243-.255-3.4-.36-.12-.5.458-.5 2.067m-253.185 4.367c.171.183 9.741 2.933 16.185 4.652.66.176 2.64.722 4.4 1.214 1.76.492 3.74 1.038 4.4 1.214.66.176 3.52.97 6.355 1.765 2.835.794 5.246 1.354 5.357 1.242.236-.236-.308-.451-2.512-.994-.88-.217-2.59-.689-3.8-1.05a201.648 201.648 0 00-8-2.19c-.99-.25-2.16-.596-2.6-.768-.44-.172-1.61-.523-2.6-.781s-2.79-.742-4-1.075c-1.21-.334-2.83-.766-3.6-.96-.77-.194-2.66-.741-4.2-1.214-2.914-.895-5.757-1.452-5.385-1.055m-87.424 3.572c-.356 1.897-.078 4.404.509 4.596.368.121.5-.576.5-2.645 0-2.998-.596-4.151-1.009-1.951m339.409 4.227c0 1.809.135 2.334.6 2.334.472 0 .59-.502.548-2.334-.038-1.682-.205-2.333-.6-2.333-.401 0-.548.625-.548 2.333m-338.319 9.634c-.161 1.947.282 4.833.744 4.833.206 0 .375-1.41.375-3.133 0-3.291-.876-4.623-1.119-1.7m337.386 1.5c-.61.609-.292 4.117.351 3.871.458-.176.594-.74.528-2.188-.085-1.865-.295-2.268-.879-1.683m.233 4.398c-.631.255-.665 1.457-.035 1.247.256-.086.51-.461.565-.834.054-.373.07-.664.035-.646-.036.017-.29.122-.565.233m-336.244 6.013c-.595.594-.277 4.905.344 4.667.43-.165.6-.837.6-2.364 0-2.006-.361-2.887-.944-2.303m334.544 5.24c0 1.541.195 2.546.553 2.843.462.384.545.02.5-2.217-.071-3.557-1.053-4.142-1.053-.626M33.268 379.267c.189 2.958 1.132 3.097 1.132.166 0-1.768-.132-2.233-.632-2.233-.511 0-.606.394-.5 2.067m332.557 1.092c-.146.236-.224 1.336-.173 2.445.117 2.566.903 2.426 1.072-.191.123-1.898-.364-3.119-.899-2.254M34.442 392.197c.068 2.122.182 2.515.621 2.151.805-.669.733-4.748-.084-4.748-.506 0-.606.48-.537 2.597m329.958 3.252c0 2.345.071 2.59.619 2.135.494-.41.514-.58.1-.843-.404-.256-.408-.33-.016-.335.339-.004.481-.593.435-1.806-.116-3.087-1.138-2.325-1.138.849m-328.8 8.902c0 .891.255 1.763.6 2.049.52.432.6.225.6-1.551 0-1.555-.145-2.049-.6-2.049-.43 0-.6.439-.6 1.551m327.6 2.049c0 .444.267.8.6.8.333 0 .6-.356.6-.8 0-.444-.267-.8-.6-.8-.333 0-.6.356-.6.8M38 407.827c0 .444.311.589 1.069.5 1.557-.185 1.695-1.127.164-1.127-.853 0-1.233.193-1.233.627m322.1-.127c.092.275.497.5.9.5s.808-.225.9-.5c.106-.317-.224-.5-.9-.5s-1.006.183-.9.5m-317.7 1.053c0 .431 1.212.78 1.902.548.277-.093.401-.334.277-.535-.29-.469-2.179-.48-2.179-.013m313.333.218c0 .394.331.582.938.531 1.113-.092 1.012-.851-.136-1.021-.503-.075-.802.107-.802.49M47.2 410.2c0 .412.262.608.7.524.843-.163.79-.872-.079-1.053-.362-.076-.621.145-.621.529m304.4-.067c0 .643 1.424.603 2.086-.059.333-.333.341-.474.027-.474-.245 0-.537.225-.648.5-.161.4-.208.4-.233 0-.043-.674-1.232-.642-1.232.033M51.063 411.42c.272.709 1.388.627 1.637-.12.104-.313-.215-.5-.854-.5-.758 0-.96.16-.783.62m296.392-.02c-.166.433.044.6.758.6.611 0 .987-.229.987-.6 0-.33-.341-.6-.757-.6-.417 0-.861.27-.988.6m-291.977.856c-.141.14-.165.403-.054.582.249.404 1.376.01 1.376-.481 0-.41-.941-.482-1.322-.101m288.122.344c0 .757.434.761 1.424.013.743-.563.73-.588-.324-.6-.717-.009-1.1.196-1.1.587m-284.8.957c0 .461.857.775 1.5.551.872-.304.54-.908-.5-.908-.55 0-1 .161-1 .357m280.4-.206c0 .661 1.152.988 1.596.454.426-.514.344-.605-.547-.605-.577 0-1.049.068-1.049.151m-275.6 1.406c0 .442 1.038.872 1.35.56.126-.126.133-.383.016-.573-.281-.454-1.366-.444-1.366.013m271.488.157c-.118.307.107.515.557.515.415 0 .755-.152.755-.338 0-.186.18-.227.4-.091.22.136.4.057.4-.176 0-.606-1.875-.526-2.112.09m-267.665.596c-.502.503-.164.89.777.89.55 0 1-.159 1-.353 0-.419-1.455-.859-1.777-.537m263.377.486c0 .217.45.358 1 .312.55-.045 1-.223 1-.395 0-.172-.45-.313-1-.313s-1 .178-1 .396m-259.1.904c.252.757 1.5.864 1.5.129 0-.371-.342-.629-.833-.629-.489 0-.765.207-.667.5m255.1.1c0 .333.356.6.8.6.444 0 .8-.267.8-.6 0-.333-.356-.6-.8-.6-.444 0-.8.267-.8.6m-251.5 1.1c.091.275.63.518 1.197.54.712.027.967-.128.825-.5-.266-.692-2.252-.732-2.022-.04m247.592-.025c.247.742 1.108.865 1.108.158a.635.635 0 00-.633-.633c-.349 0-.562.214-.475.475M79.6 419.4c0 .333.356.6.8.6.444 0 .8-.267.8-.6 0-.333-.356-.6-.8-.6-.444 0-.8.267-.8.6m239.2 0c0 .673.073.7.967.357.894-.343.787-.957-.167-.957-.444 0-.8.267-.8.6m-235.345 1.2c.127.33.661.6 1.188.6.584 0 .957-.234.957-.6 0-.399-.399-.6-1.187-.6-.892 0-1.13.15-.958.6m230.945.027c0 .444.311.589 1.069.5 1.557-.185 1.695-1.127.164-1.127-.853 0-1.233.193-1.233.627m-226.267 1.192c0 .393.294.576.802.5 1.188-.176 1.327-1.119.165-1.119-.606 0-.967.231-.967.619M310 421.8c0 .33.338.6.751.6s.975-.27 1.249-.6c.425-.512.314-.6-.751-.6-.844 0-1.249.195-1.249.6m-217.62 1.176c.263.317.735.478 1.049.357.94-.36.646-.933-.478-.933-.868 0-.966.1-.571.576m213.85-.043c.112.294.437.534.721.534.283 0 .516-.24.516-.534 0-.293-.325-.533-.721-.533-.436 0-.64.21-.516.533m-209.978 1.259c.137.356.506.593.819.528.923-.194.807-.909-.169-1.048-.688-.097-.84.024-.65.52M302.2 424c.136.22.507.4.824.4.317 0 .576-.18.576-.4 0-.22-.371-.4-.824-.4-.453 0-.712.18-.576.4m-202.38 1.155c.807.754 2.18.925 2.18.272 0-.439-.384-.627-1.28-.627-.764 0-1.127.143-.9.355m198.293.159c.093.267.511.426.928.353 1.307-.23 1.369-.663.109-.753-.801-.057-1.15.077-1.037.4m-193.943 1.038c.389.629 2.23.788 2.23.193 0-.341-.458-.545-1.224-.545-.673 0-1.125.159-1.006.352m189.823.24c.365.439.686.487 1.249.186 1.073-.575.945-.778-.491-.778-1.057 0-1.173.091-.758.592M108 427.643c0 .243.27.339.6.212.33-.126.6-.056.6.158 0 .213.27.387.6.387.33 0 .6-.27.6-.6 0-.4-.4-.6-1.2-.6-.66 0-1.2.199-1.2.443m181.438.202c-.181.471-.076.579.39.4.351-.135.803-.245 1.005-.245.202 0 .367-.18.367-.4 0-.659-1.495-.451-1.762.245m-176.436.952c-.143.231.184.362.776.313.562-.046 1.022-.225 1.022-.397 0-.455-1.509-.384-1.798.084m172.198 0c0 .219.355.344.79.277 1.252-.191 1.451-.674.277-.674-.587 0-1.067.179-1.067.397M116.933 429.8c0 .33.33.6.734.6.403 0 .733-.27.733-.6 0-.33-.33-.6-.733-.6-.404 0-.734.27-.734.6m164.53-.02c-.177.46.025.62.783.62.639 0 .958-.187.854-.5-.249-.747-1.365-.829-1.637-.12M120.4 431c0 .366.373.6.957.6.527 0 1.061-.27 1.188-.6.172-.45-.066-.6-.958-.6-.788 0-1.187.201-1.187.6m156.8.027c0 .72.823.737 1.782.036.674-.493.631-.541-.523-.574-.843-.024-1.259.154-1.259.538m-152 1.173c0 .33.27.6.6.6.33 0 .6-.27.6-.6 0-.33-.27-.6-.6-.6-.33 0-.6.27-.6.6m148 .029c0 .373.272.577.667.5 1.003-.194 1.141-1.129.166-1.129-.491 0-.833.258-.833.629M128.898 433.3c.253.769 1.902.88 1.902.128 0-.409-.361-.628-1.033-.628-.648 0-.972.187-.869.5m139.902.127c0 .822 2.072.618 2.3-.227.143-.533.114-.533-.263 0-.288.407-.427.439-.431.1-.003-.275-.366-.5-.806-.5-.46 0-.8.267-.8.627m-135.511 1.039c.206.62 1.463.724 1.611.134.055-.22-.325-.46-.845-.534-.647-.091-.888.034-.766.4m131.111-.09c0 .606.745.895 1.604.623 1.203-.382.954-.999-.404-.999-.66 0-1.2.169-1.2.376M138 435.8c0 .33.27.6.6.6.33 0 .6-.27.6-.6 0-.33-.27-.6-.6-.6-.33 0-.6.27-.6.6m122.8 0c0 .33.251.6.557.6.307 0 .661-.27.788-.6.156-.408-.022-.6-.558-.6-.433 0-.787.27-.787.6m-119.2.957c0 .442 1.038.872 1.35.56.126-.126.133-.383.016-.573-.281-.454-1.366-.444-1.366.013m115.026.001c-.266.43.893.939 1.41.62.2-.124.364-.395.364-.602 0-.479-1.48-.494-1.774-.018M144.8 437.973c0 .486 1.476.951 1.996.629.792-.489.385-1.002-.796-1.002-.66 0-1.2.168-1.2.373m107.7.127c.252.757 1.5.864 1.5.129 0-.371-.342-.629-.833-.629-.489 0-.765.207-.667.5m-102.9 1.144c0 .399 1.214.794 1.636.534.719-.445.344-.967-.636-.886-.55.045-1 .204-1 .352m98.4-.068c0 .64.808.915 1.354.462.286-.237.638-.313.783-.168.145.145.263.053.263-.203 0-.257-.54-.467-1.2-.467-.66 0-1.2.169-1.2.376m-3.5.716c-.275.096-.5.34-.5.541 0 .473 1.483.48 1.774.009.266-.431-.575-.794-1.274-.55m-90.1.508c.776.501 1.2.501 1.2 0 0-.22-.405-.397-.9-.394-.728.005-.785.08-.3.394m3.733 1.016c0 .718 1.121.622 1.367-.116.095-.284-.165-.5-.6-.5-.424 0-.767.276-.767.616m81.959-.141c.241.725.975.828.975.136 0-.336-.255-.611-.567-.611-.312 0-.495.214-.408.475M162.4 442.6c0 .33.27.6.6.6.33 0 .6-.27.6-.6 0-.33-.27-.6-.6-.6-.33 0-.6.27-.6.6m73.6 0c0 .333.356.6.8.6.444 0 .8-.267.8-.6 0-.333-.356-.6-.8-.6-.444 0-.8.267-.8.6m-70.137 1.221c.276.717 1.793.627 2.039-.121.108-.327-.258-.5-1.056-.5-.939 0-1.166.143-.983.621m65.992-.021c.127.33.566.6.975.6.498 0 .668-.199.515-.6-.127-.33-.566-.6-.975-.6-.498 0-.668.199-.515.6M170.4 445c0 .333.356.6.8.6.444 0 .8-.267.8-.6 0-.333-.356-.6-.8-.6-.444 0-.8.267-.8.6m57.063.021c.276.717 1.793.627 2.039-.121.108-.327-.258-.5-1.056-.5-.939 0-1.166.143-.983.621M174.4 446c-.33.213-.42.413-.2.445 1.745.249 2.2.187 2.2-.3 0-.63-1.124-.711-2-.145m49.2.2c0 .33.27.6.6.6.33 0 .6-.27.6-.6 0-.33-.27-.6-.6-.6-.33 0-.6.27-.6.6m-44.8 1.2c.274.33.656.6.849.6.193 0 .351-.27.351-.6 0-.345-.361-.6-.849-.6-.709 0-.767.099-.351.6m40.4 0c0 .645.366.741 1.365.358.814-.312.417-.958-.589-.958-.427 0-.776.27-.776.6m-37.006 1.01c-.139.225-.105.384.076.353.182-.032.42-.023.53.02.903.352 1.6.257 1.6-.218 0-.654-1.819-.781-2.206-.155m33.006.219c0 .373.272.577.667.5 1.003-.194 1.141-1.129.166-1.129-.491 0-.833.258-.833.629m-28.4.928c0 .45 1.04.869 1.361.549.481-.482.219-.906-.561-.906-.44 0-.8.161-.8.357m24.088.108c.226.676 1.234.723 1.83.085.429-.459.307-.55-.736-.55-.771 0-1.189.178-1.094.465m-19.688 1.092c0 .632 1.126.813 1.354.218.146-.38-.046-.575-.567-.575-.433 0-.787.161-.787.357m15.6.019c0 .697.677.802 1.441.224.719-.544.701-.575-.341-.587-.605-.007-1.1.156-1.1.363m-4 1.322c0 .554.188.716.633.545.348-.134.798-.243 1-.243.809 0 .302-.719-.633-.898-.793-.151-1-.028-1 .596m-8-.098c0 .22.165.4.367.4.202 0 .652.109 1 .243.415.159.633.022.633-.4 0-.419-.348-.643-1-.643-.55 0-1 .18-1 .4" fill="#f6ebb4"></path>
    </g>
  </symbol>
  <symbol xmlns="http://www.w3.org/2000/svg" viewBox="0 0 48 48" id="mongodb">
    <path fill="#5d4037" d="M42 17.3C42 37.8 24 44 24 44S6 37.8 6 17.3c0-2.5.2-4.6.4-6.3.3-2.5 2-4.5 4.4-5.1C13.9 5 18.8 4 24 4s10.1 1 13.3 1.9c2.4.6 4.1 2.7 4.4 5.1.1 1.7.3 3.9.3 6.3z"></path>
    <path fill="#4caf50" d="M24 7c4.9 0 9.5 1 12.5 1.8 1.2.3 2 1.3 2.2 2.6.2 1.9.3 3.9.3 5.9 0 15.6-11.5 21.9-15 23.4-3.5-1.6-15-7.9-15-23.4 0-2 .1-4 .3-5.9.1-1.3 1-2.3 2.2-2.6C14.5 8 19.1 7 24 7m0-3c-5.2 0-10.1 1-13.3 1.9-2.3.6-4.1 2.7-4.3 5.1-.2 1.7-.4 3.9-.4 6.3C6 37.8 24 44 24 44s18-6.2 18-26.7c0-2.5-.2-4.6-.4-6.3-.3-2.5-2-4.5-4.4-5.1C34.1 5 29.2 4 24 4z"></path>
    <path fill="#dcedc8" d="M23 28h2v8h-2z"></path>
    <path fill="#4caf50" d="M24 10s-6 5-6 13c0 5.2 3.3 8.5 5 10l1-3 1 3c1.7-1.5 5-4.8 5-10 0-8-6-13-6-13z"></path>
    <path fill="#81c784" d="M24 10s-6 5-6 13c0 5.2 3.3 8.5 5 10l1-3V10z"></path>
  </symbol>
  <symbol xmlns="http://www.w3.org/2000/svg" viewBox="0 0 109 122.88" id="node-js">
    <path d="M68.43 87.08c-19.7 0-23.83-9.04-23.83-16.63 0-.72.58-1.3 1.3-1.3h5.82c.64 0 1.18.47 1.28 1.1.88 5.93 3.49 8.92 15.41 8.92 9.49 0 13.52-2.14 13.52-7.18 0-2.9-1.15-5.05-15.89-6.49-12.33-1.22-19.95-3.93-19.95-13.8 0-9.08 7.66-14.49 20.5-14.49 14.42 0 21.56 5 22.46 15.76.03.37-.1.73-.35 1-.25.26-.6.42-.96.42H81.9c-.61 0-1.14-.43-1.26-1.01-1.41-6.23-4.81-8.23-14.07-8.23-10.36 0-11.56 3.61-11.56 6.31 0 3.28 1.42 4.24 15.4 6.09 13.84 1.84 20.41 4.43 20.41 14.16 0 9.81-8.18 15.43-22.45 15.43l.06-.06zm-13.91 35.8c-1.65 0-3.28-.43-4.72-1.26l-15.03-8.9c-2.25-1.26-1.15-1.7-.41-1.96 2.99-1.05 3.6-1.28 6.8-3.1.34-.19.78-.12 1.12.08l11.55 6.85c.42.23 1.01.23 1.4 0l45.03-25.99c.42-.24.69-.72.69-1.22V35.43c0-.52-.27-.98-.7-1.24L55.23 8.22c-.42-.25-.97-.25-1.39 0l-45 25.97c-.44.25-.71.73-.71 1.23v51.96c0 .5.27.97.7 1.21l12.33 7.12c6.69 3.35 10.79-.6 10.79-4.56V39.86c0-.73.57-1.3 1.31-1.3h5.7c.71 0 1.3.56 1.3 1.3v51.31c0 8.93-4.87 14.05-13.33 14.05-2.6 0-4.66 0-10.38-2.82L4.72 95.59A9.505 9.505 0 010 87.38V35.42c0-3.38 1.8-6.54 4.72-8.21l45.07-26c2.85-1.61 6.64-1.61 9.47 0l45.02 26.01c2.91 1.68 4.72 4.82 4.72 8.21v51.96c0 3.37-1.81 6.51-4.72 8.21l-45.02 26a9.5 9.5 0 01-4.74 1.26v.02zm0 0z" fill-rule="evenodd" clip-rule="evenodd" fill="#689f63"></path>
  </symbol>
  <symbol xmlns="http://www.w3.org/2000/svg" viewBox="0 0 122.88 109.43" id="react-js">
    <path d="M122.88 54.73c0-8.14-10.19-15.85-25.82-20.64 3.61-15.93 2-28.6-5.06-32.66-1.63-.95-3.53-1.4-5.61-1.4v5.59c1.15 0 2.08.23 2.86.65 3.41 1.95 4.88 9.39 3.73 18.96-.28 2.35-.73 4.83-1.28 7.36-4.91-1.2-10.27-2.13-15.9-2.73-3.38-4.63-6.89-8.84-10.42-12.52C73.54 9.74 81.2 5.59 86.41 5.59V0c-6.89 0-15.9 4.91-25.02 13.43C52.27 4.96 43.26.1 36.37.1v5.59c5.18 0 12.87 4.13 21.04 11.67-3.51 3.68-7.01 7.86-10.34 12.5-5.66.6-11.02 1.53-15.93 2.75-.58-2.5-1-4.93-1.3-7.26-1.18-9.57.28-17.01 3.66-18.99.75-.45 1.73-.65 2.88-.65V.13c-2.1 0-4.01.45-5.66 1.4-7.04 4.06-8.62 16.71-4.98 32.59C10.14 38.92 0 46.61 0 54.73c0 8.14 10.19 15.85 25.82 20.64-3.61 15.93-2 28.6 5.06 32.66 1.63.95 3.53 1.4 5.64 1.4 6.89 0 15.9-4.91 25.02-13.43 9.12 8.47 18.13 13.33 25.02 13.33 2.1 0 4.01-.45 5.66-1.4 7.04-4.06 8.62-16.71 4.98-32.59 15.54-4.78 25.68-12.5 25.68-20.61zm-50.02 0c0-6.32-5.12-11.45-11.45-11.45-6.32 0-11.45 5.12-11.45 11.45s5.12 11.45 11.45 11.45c6.33-.01 11.45-5.13 11.45-11.45zM36.34.1zm53.93 37.92c-.93 3.23-2.08 6.56-3.38 9.89-1.03-2-2.1-4.01-3.28-6.01-1.15-2-2.38-3.96-3.61-5.86 3.56.53 6.99 1.18 10.27 1.98zM78.8 64.7c-1.95 3.38-3.96 6.59-6.04 9.57-3.73.33-7.51.5-11.32.5-3.78 0-7.56-.18-11.27-.48-2.08-2.98-4.11-6.16-6.06-9.52-1.9-3.28-3.63-6.61-5.21-9.97 1.55-3.36 3.31-6.71 5.18-9.99 1.95-3.38 3.96-6.59 6.04-9.57 3.73-.33 7.51-.5 11.32-.5 3.78 0 7.56.18 11.27.48 2.08 2.98 4.11 6.16 6.06 9.52 1.9 3.28 3.63 6.61 5.21 9.97-1.58 3.35-3.3 6.7-5.18 9.99zm8.09-3.26c1.35 3.36 2.5 6.71 3.46 9.97-3.28.8-6.74 1.48-10.32 2 1.23-1.93 2.45-3.91 3.61-5.94 1.14-2 2.22-4.03 3.25-6.03zm-25.4 26.72c-2.33-2.4-4.66-5.08-6.96-8.01 2.25.1 4.56.18 6.89.18 2.35 0 4.68-.05 6.96-.18a98.98 98.98 0 01-6.89 8.01zM42.86 73.41c-3.56-.53-6.99-1.18-10.27-1.98.93-3.23 2.08-6.56 3.38-9.89 1.03 2 2.1 4.01 3.28 6.01 1.18 2.01 2.38 3.96 3.61 5.86zm18.5-52.12c2.33 2.4 4.66 5.08 6.96 8.01-2.25-.1-4.56-.18-6.89-.18-2.35 0-4.68.05-6.96.18a98.98 98.98 0 016.89-8.01zM42.83 36.04a144.13 144.13 0 00-3.61 5.94c-1.15 2-2.23 4.01-3.26 6.01-1.35-3.36-2.5-6.71-3.46-9.97 3.29-.78 6.75-1.45 10.33-1.98zM20.16 67.4c-8.87-3.78-14.6-8.74-14.6-12.67 0-3.93 5.74-8.92 14.6-12.67 2.15-.93 4.51-1.75 6.94-2.53 1.43 4.91 3.31 10.02 5.64 15.25-2.3 5.21-4.16 10.29-5.56 15.18-2.48-.78-4.84-1.63-7.02-2.56zm13.48 35.79c-3.41-1.95-4.88-9.39-3.73-18.96.28-2.35.73-4.83 1.28-7.36 4.91 1.2 10.27 2.13 15.9 2.73 3.38 4.63 6.89 8.84 10.42 12.52-8.17 7.59-15.83 11.75-21.04 11.75-1.13-.03-2.08-.25-2.83-.68zm59.41-19.08c1.18 9.57-.28 17.01-3.66 18.99-.75.45-1.73.65-2.88.65-5.18 0-12.87-4.13-21.04-11.67 3.51-3.68 7.01-7.86 10.34-12.5 5.66-.6 11.02-1.53 15.93-2.76.58 2.53 1.03 4.96 1.31 7.29zm9.64-16.71c-2.15.93-4.51 1.75-6.94 2.53-1.43-4.91-3.31-10.02-5.64-15.25 2.3-5.21 4.16-10.29 5.56-15.18 2.48.78 4.83 1.63 7.04 2.55 8.87 3.78 14.6 8.74 14.6 12.67-.02 3.94-5.75 8.92-14.62 12.68z" fill-rule="evenodd" clip-rule="evenodd" fill="#00d8ff"></path>
  </symbol>
  <symbol xmlns="http://www.w3.org/2000/svg" viewBox="0 0 512 512" id="web-deployment">
    <path d="M487.49 25l10 70v402c0 8.28-6.71 15-15 15H29.51c-8.29 0-15-6.72-15-15V135l10-110c0-8.28 6.71-15 15-15h432.98c8.29 0 15 6.72 15 15z" fill="#f0f7ff"></path>
    <path d="M497.49 95v402c0 8.28-6.71 15-15 15H256V0h226.49c8.29 0 15 6.72 15 15z" fill="#dfe7f4"></path>
    <path d="M497.49 15v80H294.36c-11.89 0-23.42 4.04-32.69 11.47L256 111l-13.67 10.93A59.617 59.617 0 01205.08 135H14.51V15c0-8.28 6.71-15 15-15h452.98c8.29 0 15 6.72 15 15z" fill="#5e54ac"></path>
    <circle cx="195.255" cy="67.5" fill="#df5ccb" r="15"></circle>
    <circle cx="135.255" cy="67.5" fill="#fabe2c" r="15"></circle>
    <circle cx="75.255" cy="67.5" fill="#bde239" r="15"></circle>
    <path d="M256.14 177.555h-.28c-80.41.08-145.8 65.52-145.8 145.94 0 80.43 65.39 145.87 145.8 145.94.05 0 .09.01.14.01s.09-.01.14-.01c80.41-.07 145.8-65.51 145.8-145.94 0-80.42-65.39-145.86-145.8-145.94zm99.83 87.29h-39.92c-3.21-17.75-7.94-34.13-14.15-47.8 22.68 9.81 41.63 26.67 54.07 47.8zm-121.4-28.58c7.53-19.66 16.35-28.65 21.38-28.71h.1c5.03.06 13.85 9.05 21.38 28.71 3.26 8.54 5.98 18.17 8.12 28.58h-59.1c2.14-10.41 4.86-20.04 8.12-28.58zm-90.93 115.88c-2.33-9.16-3.58-18.76-3.58-28.65 0-9.88 1.25-19.48 3.59-28.65h48.41c-.78 9.45-1.17 19.06-1.17 28.65s.39 19.2 1.17 28.65zm12.39 30h39.92c3.21 17.75 7.94 34.14 14.14 47.81-22.68-9.82-41.62-26.68-54.06-47.81zm39.92-117.3h-39.92c12.44-21.13 31.38-37.99 54.06-47.8-6.2 13.67-10.93 30.05-14.14 47.8zm81.48 145.88c-7.53 19.67-16.35 28.66-21.38 28.71h-.1c-5.03-.05-13.85-9.04-21.38-28.71-3.27-8.53-5.99-18.16-8.12-28.58h59.1c-2.14 10.42-4.86 20.05-8.12 28.58zm12.43-58.58h-67.72c-.82-9.26-1.25-18.85-1.25-28.65 0-9.79.43-19.39 1.25-28.65h67.72c.82 9.26 1.25 18.86 1.25 28.65 0 9.8-.43 19.39-1.25 28.65zm12.04 77.81c6.21-13.67 10.94-30.06 14.15-47.81h39.92c-12.44 21.13-31.38 37.99-54.07 47.81zm18.04-77.81c.78-9.45 1.17-19.06 1.17-28.65s-.39-19.2-1.17-28.65h48.41c2.34 9.17 3.59 18.77 3.59 28.65 0 9.89-1.25 19.49-3.58 28.65z" fill="#4793ff"></path>
    <path d="M256.14 177.555H256v30h.05c5.03.06 13.85 9.05 21.38 28.71 3.26 8.54 5.98 18.17 8.12 28.58H256v30h33.86c.82 9.26 1.25 18.86 1.25 28.65 0 9.8-.43 19.39-1.25 28.65H256v30h29.55c-2.14 10.42-4.86 20.05-8.12 28.58-7.53 19.67-16.35 28.66-21.38 28.71H256v30.01c.05 0 .09-.01.14-.01 80.41-.07 145.8-65.51 145.8-145.94 0-80.42-65.39-145.86-145.8-145.94zm99.83 87.29h-39.92c-3.21-17.75-7.94-34.13-14.15-47.8 22.68 9.81 41.63 26.67 54.07 47.8zm-54.07 165.11c6.21-13.67 10.94-30.06 14.15-47.81h39.92c-12.44 21.13-31.38 37.99-54.07 47.81zm18.04-77.81c.78-9.45 1.17-19.06 1.17-28.65s-.39-19.2-1.17-28.65h48.41c2.34 9.17 3.59 18.77 3.59 28.65 0 9.89-1.25 19.49-3.58 28.65z" fill="#525cdd"></path>
    <path d="M497.49 15v80H294.36c-11.89 0-23.42 4.04-32.69 11.47L256 111V0h226.49c8.29 0 15 6.72 15 15z" fill="#453d81"></path>
  </symbol>
  <symbol xmlns="http://www.w3.org/2000/svg" viewBox="0 0 469.34 469.34" id="web-design">
    <path d="M42.667.003h383.996c23.564 0 42.667 19.103 42.667 42.667v341.336c0 23.564-19.103 42.667-42.667 42.667H42.667C19.103 426.673 0 407.57 0 384.006V42.67C0 19.106 19.103.003 42.667.003z" fill="#f0eaf9"></path>
    <path d="M21.333 85.34h426.664c11.782 0 21.333 9.551 21.333 21.333v.001c0 11.782-9.551 21.333-21.333 21.333H21.333C9.551 128.007 0 118.456 0 106.674v-.001C0 94.891 9.551 85.34 21.333 85.34z" fill="#e1d5f3"></path>
    <path d="M42.667.003h384c23.564 0 42.667 19.103 42.667 42.667v64H0v-64C0 19.106 19.103.003 42.667.003z" fill="#5628b4"></path>
    <path d="M42.667.003h384.004c11.782 0 21.333 9.551 21.333 21.333v.001c0 11.782-9.551 21.333-21.333 21.333H42.667c-11.782 0-21.333-9.551-21.333-21.333v-.001C21.334 9.554 30.885.003 42.667.003z" fill="#6f48bf"></path>
    <path d="M32.001 85.34h405.336c5.891 0 10.667 4.776 10.667 10.667s-4.776 10.667-10.667 10.667H32.001c-5.891 0-10.667-4.776-10.667-10.667S26.11 85.34 32.001 85.34z" fill="#421198"></path>
    <path d="M458.667 149.337c-5.891 0-10.667 4.775-10.667 10.666v224.001c0 11.782-9.551 21.333-21.333 21.333H309.334c-5.891 0-10.667 4.776-10.667 10.667s4.776 10.667 10.667 10.667h117.333c23.564 0 42.666-19.103 42.667-42.667v-224c0-5.892-4.776-10.667-10.667-10.667z" fill="#d9c9ef"></path>
    <path d="M10.667 192c5.891 0 10.667 4.776 10.667 10.667v170.666c0 5.891-4.776 10.667-10.667 10.667S0 379.224 0 373.333V202.667C0 196.776 4.776 192 10.667 192z" fill="#dfd2f2"></path>
    <circle cx="53.337" cy="53.34" r="10.667" fill="#f7b236"></circle>
    <circle cx="95.997" cy="53.34" r="10.667" fill="#b39ddd"></circle>
    <circle cx="138.667" cy="53.34" r="10.667" fill="#d80e70"></circle>
    <path d="M405.334 298.67H192c-11.782 0-21.333-9.551-21.333-21.333V170.673c0-11.782 9.551-21.333 21.333-21.333h213.334c11.782 0 21.333 9.551 21.333 21.333v106.664c0 11.782-9.551 21.333-21.333 21.333zm-298.67-64H64c-11.782 0-21.333-9.551-21.333-21.333v-42.664c0-11.782 9.551-21.333 21.333-21.333h42.664c11.782 0 21.333 9.551 21.333 21.333v42.664c0 11.782-9.551 21.333-21.333 21.333zm0 149.33H64c-11.782 0-21.333-9.551-21.333-21.333v-42.664c0-11.782 9.551-21.333 21.333-21.333h42.664c11.782 0 21.333 9.551 21.333 21.333v42.664c0 11.782-9.551 21.333-21.333 21.333zm74.67-64h63.996c5.891 0 10.667 4.776 10.667 10.667s-4.776 10.667-10.667 10.667h-63.996c-5.891 0-10.667-4.776-10.667-10.667S175.443 320 181.334 320zm213.33 0h21.333c5.891 0 10.667 4.776 10.667 10.667s-4.776 10.667-10.667 10.667h-21.333c-5.891 0-10.667-4.776-10.667-10.667S388.773 320 394.664 320zm-106.66 0H352c5.891 0 10.667 4.776 10.667 10.667s-4.776 10.667-10.667 10.667h-63.996c-5.891 0-10.667-4.776-10.667-10.667S282.113 320 288.004 320zm-106.67 42.67h85.336c5.891 0 10.667 4.776 10.667 10.667s-4.776 10.667-10.667 10.667h-85.336c-5.891 0-10.667-4.776-10.667-10.667s4.776-10.667 10.667-10.667zm128 0h21.333c5.891 0 10.667 4.776 10.667 10.667s-4.776 10.667-10.667 10.667h-21.333c-5.891 0-10.667-4.776-10.667-10.667s4.776-10.667 10.667-10.667zM117.33 277.34H53.334c-5.891 0-10.667-4.776-10.667-10.667s4.776-10.667 10.667-10.667h63.996c5.891 0 10.667 4.776 10.667 10.667s-4.776 10.667-10.667 10.667z" fill="#b39ddd"></path>
    <path d="M234.667 320.003h-21.331c-58.91 0-106.667 47.756-106.667 106.667v.567c.076 11.653-10.209 20.767-21.862 20.767h-10.14c-5.891 0-10.667 4.776-10.667 10.667s4.776 10.667 10.667 10.667h74.667C208.244 469.337 256 421.58 256 362.67v-42.667h-21.333z" fill="#f7b236"></path>
    <path d="M256 362.67v-42.667h-21.333c0 58.91-47.756 106.667-106.667 106.667h-21.33v.566c.076 11.652-10.21 20.767-21.862 20.767H74.667c-5.891 0-10.667 4.776-10.667 10.667s4.776 10.667 10.667 10.667h74.667C208.244 469.336 256 421.58 256 362.67z" fill="#f58b04"></path>
    <path d="M462.184 113.82a24.407 24.407 0 00-24.977-5.896 307.868 307.868 0 00-172.798 152.597L256 277.337v42.667h42.667l16.816-8.408A307.87 307.87 0 00468.08 138.798a24.407 24.407 0 00-5.896-24.978z" fill="#d80e70"></path>
    <ellipse transform="rotate(-134.999 341.332 213.349)" cx="341.331" cy="213.347" rx="21.333" ry="56.757" fill="#e976af"></ellipse>
    <path d="M437.206 107.923c-3.693 1.305-7.198 2.986-10.826 4.424-2.778 95.651-75.328 174.772-170.38 185.813v21.844h42.667l16.816-8.409a307.876 307.876 0 00152.598-172.798c4.262-12.789-2.651-26.612-15.44-30.874a24.403 24.403 0 00-15.435 0z" fill="#a60068"></path>
    <path d="M234.667 320.003L256 341.337l42.667-21.334L256 277.337l-21.333 42.666z" fill="#5628b4"></path>
    <path d="M246.199 331.535l9.801 9.801 42.667-21.333-20.468-20.468c-8.837-8.837-23.163-8.837-32 0a22.628 22.628 0 000 32z" fill="#420f9b"></path>
    <ellipse transform="rotate(-134.999 160.648 373.664)" cx="160.648" cy="373.661" rx="16.617" ry="42.44" fill="#fbda9e"></ellipse>
  </symbol>
  <symbol xmlns="http://www.w3.org/2000/svg" viewBox="0 0 512 512" id="web-development">
    <path d="M512 46c0-24.853-20.147-45-45-45H45C20.147 1 0 21.147 0 46v90l10 10h492l10-10z" fill="#0052c2"></path>
    <path d="M512 46v90l-10 10H256V1h211c24.85 0 45 20.15 45 45z" fill="#003481"></path>
    <path d="M436 61h-90c-8.284 0-15 6.716-15 15s6.716 15 15 15h90c8.284 0 15-6.716 15-15s-6.716-15-15-15z" fill="#0052c2"></path>
    <circle cx="196" cy="76" fill="#f03800" r="15"></circle>
    <circle cx="136" cy="76" fill="#fdbf00" r="15"></circle>
    <circle cx="76" cy="76" fill="#37d742" r="15"></circle>
    <path d="M0 136v330c0 24.813 20.187 45 45 45h422c24.813 0 45-20.187 45-45V136z" fill="#e0f4ff"></path>
    <path d="M512 136v330c0 24.81-20.19 45-45 45H256V136z" fill="#b8e0f5"></path>
    <path d="M306.909 197.213c-7.614-3.263-16.433.264-19.696 7.878l-90 210c-3.264 7.614.264 16.433 7.878 19.696 7.617 3.264 16.434-.266 19.696-7.878l90-210c3.264-7.615-.264-16.433-7.878-19.696z" fill="#ff641a"></path>
    <path d="M314.79 216.91L256 354.09v-76.18l31.21-72.82c3.27-7.61 12.08-11.14 19.7-7.88 7.61 3.27 11.14 12.08 7.88 19.7z" fill="#f03800"></path>
    <path d="M175.37 364.287L115.012 316l60.358-48.287c6.47-5.175 7.518-14.614 2.343-21.083-5.176-6.469-14.617-7.517-21.083-2.342l-75 60c-7.499 5.997-7.504 17.424 0 23.426l75 60c6.469 5.176 15.91 4.126 21.083-2.342 5.175-6.471 4.127-15.91-2.343-21.085z" fill="#ff641a"></path>
    <path d="M430.37 304.287l-75-60c-6.469-5.176-15.909-4.127-21.083 2.342-5.175 6.469-4.127 15.909 2.343 21.083L396.988 316l-60.358 48.287c-6.47 5.175-7.518 14.614-2.343 21.083 5.182 6.476 14.623 7.512 21.083 2.342l75-60c7.499-5.997 7.504-17.423 0-23.425z" fill="#f03800"></path>
  </symbol>
  <symbol xmlns="http://www.w3.org/2000/svg" viewBox="0 0 512 512" id="web-maintenance">
    <path d="M512 46c0-24.853-20.147-45-45-45H45C20.147 1 0 21.147 0 46v90l10 10h492l10-10z" fill="#0052c2"></path>
    <path d="M512 46v90l-10 10H256V1h211c24.85 0 45 20.15 45 45z" fill="#003481"></path>
    <path d="M436 61h-90c-8.284 0-15 6.716-15 15s6.716 15 15 15h90c8.284 0 15-6.716 15-15s-6.716-15-15-15z" fill="#0052c2"></path>
    <circle cx="196" cy="76" fill="#f03800" r="15"></circle>
    <circle cx="136" cy="76" fill="#fdbf00" r="15"></circle>
    <circle cx="76" cy="76" fill="#37d742" r="15"></circle>
    <path d="M0 136v300c0 24.813 20.187 45 45 45h422c24.813 0 45-20.187 45-45V136z" fill="#e0f4ff"></path>
    <path d="M512 136v300c0 24.81-20.19 45-45 45H256V136z" fill="#b8e0f5"></path>
    <path d="M323.511 199.076C313.516 193.293 301 200.534 301 212.06v66.44l-45 33.75-45-33.75v-66.44c0-11.546-12.534-18.758-22.511-12.984C146.86 223.157 121 267.96 121 316c0 45.091 22.78 87.328 60 112.257V496c0 8.284 6.716 15 15 15h120c8.284 0 15-6.716 15-15v-67.743c37.22-24.929 60-67.166 60-112.257 0-48.04-25.86-92.843-67.489-116.924z" fill="#ff641a"></path>
    <path d="M391 316c0 45.09-22.78 87.33-60 112.26V496c0 8.28-6.72 15-15 15h-60V312.25l45-33.75v-66.44c0-11.53 12.52-18.77 22.51-12.98C365.14 223.16 391 267.96 391 316z" fill="#f03800"></path>
  </symbol>
</svg>